<?xml version="1.0" standalone="no"?>
<!DOCTYPE svg PUBLIC "-//W3C//DTD SVG 1.1//EN" "http://www.w3.org/Graphics/SVG/1.1/DTD/svg11.dtd" >
<svg xmlns="http://www.w3.org/2000/svg">
<metadata>
This is a custom SVG webfont generated by Font Squirrel.
Copyright   : COPYRIGHT ESSELTE LETRASET LTD 1990 
</metadata>
<defs>
<font id="HarlowSolidLETPlain" horiz-adv-x="819" >
<font-face units-per-em="2048" ascent="1638" descent="-410" />
<missing-glyph horiz-adv-x="382" />
<glyph unicode=" "  horiz-adv-x="382" />
<glyph unicode="&#x09;" horiz-adv-x="382" />
<glyph unicode="&#xa0;" horiz-adv-x="382" />
<glyph unicode="!" horiz-adv-x="628" d="M82 112q0 38 19 70q20 32 51 51q32 18 67 18q40 0 71 -19q32 -19 51 -51q19 -31 19 -71q0 -58 -40 -97q-40 -40 -99 -40q-38 0 -69 19q-33 18 -51 51q-19 31 -19 69zM222 403q0 23 11 64l188 684q17 59 55 93t89 34q53 0 91 -35q38 -36 38 -88q0 -37 -25 -103l-219 -593 q-57 -153 -128 -153q-41 0 -70 29q-30 29 -30 68z" />
<glyph unicode="&#x22;" horiz-adv-x="760" d="M273 869q0 21 9 45l7 17l94 232l7 18q27 62 82 62q36 0 61 -24q25 -25 25 -58q0 -20 -10 -44l-7 -18l-93 -232l-8 -17q-25 -63 -82 -63q-34 0 -59 25q-26 26 -26 57zM557 869q0 21 9 45l7 17l94 232l7 18q27 62 82 62q36 0 61 -24q25 -25 25 -58q0 -21 -9 -44l-8 -18 l-93 -232l-7 -17q-27 -63 -83 -63q-34 0 -59 25q-26 26 -26 57z" />
<glyph unicode="#" d="M68 0v1365h683v-1365h-683zM82 14h655v1337h-655v-1337z" />
<glyph unicode="$" horiz-adv-x="779" d="M18 94q0 54 44 95q43 40 107 40h25h203q41 0 66 22q24 21 24 55q0 23 -12 51l-180 415l-14 31q-38 87 -38 156q0 111 76 187q75 75 198 87l13 33q17 41 49 66t70 25q18 0 36 -6q17 -7 34 -18q13 -8 23 -22q16 -23 20 -78h18q120 0 120 -95q0 -37 -20 -69q-21 -32 -56 -50 q-34 -19 -77 -19h-25h-130h-25q-81 -1 -81 -57q0 -23 17 -60l165 -371q55 -123 55 -223q0 -78 -40 -142q-42 -66 -109 -103q-72 -40 -158 -44l-19 -46q-18 -46 -52 -73t-75 -27q-43 0 -73 30q-31 28 -31 72q0 15 8 44h-24h-25q-107 2 -107 94z" />
<glyph unicode="%" horiz-adv-x="1252" d="M164 791q0 76 30 157q28 80 80 150q104 144 246 144q85 0 135 -50q49 -50 49 -138q0 -110 -49 -218q-50 -111 -122 -167q-76 -59 -177 -59q-90 0 -141 48t-51 133zM231 37q0 21 27 60l771 1088l9 13q32 41 73 41q25 0 43 -15q17 -15 17 -36q0 -23 -26 -60l-772 -1089 l-9 -12q-30 -42 -72 -42q-26 0 -43 16q-18 15 -18 36zM307 802q0 -30 17 -50q16 -19 43 -19q73 0 131 105q67 116 67 215q0 71 -56 71q-71 0 -138 -121q-64 -112 -64 -201zM699 172q0 76 28 154q29 79 81 152q107 144 247 144q84 0 134 -50q49 -50 49 -138q0 -107 -48 -217 t-122 -167q-76 -60 -177 -60q-90 0 -141 48t-51 134zM842 182q0 -30 17 -50q16 -19 42 -19q71 0 132 106q26 46 47 111q19 60 19 103q0 71 -55 71q-71 0 -138 -121q-64 -112 -64 -201z" />
<glyph unicode="&#x26;" horiz-adv-x="1607" d="M68 166q0 107 38 206q39 101 107 175q70 76 164 121q67 33 210 59q-38 46 -59 100q-19 48 -19 102q0 113 66 215t170 153q126 61 311 61h233h24q103 -3 103 -90q0 -55 -40 -91q-40 -37 -102 -37h-24h-208q-112 0 -179 -34q-55 -28 -90 -82q-36 -54 -36 -112q0 -42 22 -76 q21 -37 57 -53q20 -10 63 -19q41 -9 69 -9h190l53 126l11 27q22 51 58 79q36 27 83 27q44 0 72 -27q29 -27 29 -66q0 -34 -25 -96l-29 -70h35h24q47 0 76 -23q28 -22 28 -67q0 -36 -19 -64q-20 -31 -51 -47q-34 -17 -73 -17h-24h-86l-185 -450q-51 -125 -133 -213 q-83 -89 -189 -134q-107 -46 -237 -46q-142 0 -254 59q-111 58 -173 167q-61 107 -61 246zM299 181q0 -114 78 -188q79 -74 202 -74q95 0 180 60q86 60 123 154l166 404h-268q-173 0 -269 -39q-59 -24 -108 -73q-50 -50 -77 -111q-27 -63 -27 -133z" />
<glyph unicode="'" horiz-adv-x="476" d="M273 869q0 21 9 45l7 17l94 232l7 18q27 62 82 62q36 0 61 -24q25 -25 25 -58q0 -20 -10 -44l-7 -18l-93 -232l-8 -17q-25 -63 -82 -63q-34 0 -59 25q-26 26 -26 57z" />
<glyph unicode="(" d="M266 353q0 233 65 449q64 210 199 423q41 66 106 152q52 68 112 132q74 78 146 78q47 0 78 -27q30 -27 30 -70q0 -27 -11 -51q-10 -22 -51 -75q-38 -49 -152 -214q-131 -197 -198 -409q-68 -215 -68 -432v-58q-1 -9 -1 -25q2 -75 7 -124l17 -173q3 -38 3 -50 q-6 -112 -107 -112q-90 0 -129 133q-24 83 -37 241q-9 101 -9 212z" />
<glyph unicode=")" d="M14 -135q0 29 14 57q13 26 48 70q47 57 152 213q63 94 115 200q51 107 84 211q34 106 50 215q17 114 17 216v82q0 64 -6 124l-17 174q-3 36 -3 49q6 112 106 112q91 0 130 -133q23 -84 37 -240q9 -100 9 -212q0 -161 -28 -304q-28 -145 -87 -286q-57 -139 -149 -283 q-106 -165 -218 -283q-75 -79 -146 -79q-48 0 -77 28q-31 28 -31 69z" />
<glyph unicode="*" horiz-adv-x="856" d="M300 1106q0 44 32 87q32 42 66 42q25 0 69 -37l172 -140l-83 205q-18 44 -18 55q0 31 35 57q34 25 79 25t78 -24q32 -26 32 -56q0 -16 -17 -58l-81 -205l175 137q49 38 61 38q42 0 73 -39q31 -38 31 -90q0 -38 -18 -65t-46 -30q-1 1 -5 1t-9 1q-3 0 -33 2l-220 20 l184 -123q41 -27 50 -37q10 -13 10 -36q0 -45 -39 -81q-40 -37 -90 -37q-51 0 -69 29q-1 1 -15 55l-52 214l-52 -213q-12 -53 -28 -69q-17 -17 -53 -17q-50 0 -91 38q-40 37 -40 87q0 21 9 31q8 11 48 36l185 123l-219 -16h-18q-5 -1 -17 -1q-35 0 -55 26q-21 26 -21 65z " />
<glyph unicode="+" d="M68 0v1365h683v-1365h-683zM82 14h655v1337h-655v-1337z" />
<glyph unicode="," horiz-adv-x="546" d="M27 -127q0 20 26 58l21 29l44 61q-34 55 -34 99q0 53 41 92t98 39q58 0 98 -40q39 -40 39 -99q0 -53 -28 -96q-30 -46 -102 -106q-58 -48 -91 -65q-31 -18 -57 -18q-19 0 -37 15q-18 13 -18 31z" />
<glyph unicode="-" horiz-adv-x="887" d="M137 427q0 37 27 61q26 24 67 24h19h387h19q44 0 69 -22q26 -23 26 -63q0 -39 -26 -62q-27 -24 -69 -24h-19h-387h-19q-41 1 -68 25q-26 23 -26 61z" />
<glyph unicode="." horiz-adv-x="546" d="M82 112q0 38 19 70q20 32 51 51q32 18 67 18q40 0 71 -19q32 -19 51 -51q19 -31 19 -71q0 -58 -40 -97q-40 -40 -99 -40q-38 0 -69 19q-33 18 -51 51q-19 31 -19 69z" />
<glyph unicode="/" horiz-adv-x="947" d="M61 -52q0 30 27 74l866 1369q56 86 119 86q37 0 59 -21t22 -56q0 -31 -24 -70l-865 -1371q-58 -90 -117 -90q-35 0 -61 23t-26 56z" />
<glyph unicode="0" horiz-adv-x="1034" d="M96 336q0 102 25 208q25 111 70 211q45 104 108 198q195 289 459 289q99 0 175 -45q74 -45 115 -129q40 -83 40 -194q0 -107 -23 -222q-24 -115 -66 -217q-46 -110 -101 -191q-58 -86 -126 -145q-141 -120 -326 -120q-96 0 -160 26q-65 26 -110 83q-80 98 -80 248z M339 357q0 -68 37 -111q36 -44 91 -44q140 0 258 223q37 69 68 155q26 74 43 156q16 74 16 134q0 78 -30 118t-87 40q-68 0 -136 -63q-69 -65 -136 -191q-53 -102 -89 -219q-35 -114 -35 -198z" />
<glyph unicode="1" horiz-adv-x="588" d="M48 81q0 35 15 69l10 27l337 829h-69h-24q-50 2 -76 25q-28 22 -28 66q0 57 43 94q43 38 104 38h24h200q53 0 87 -26q33 -25 33 -70q0 -30 -16 -66l-382 -942q-31 -75 -66 -106q-37 -32 -91 -32q-43 0 -72 27t-29 67z" />
<glyph unicode="2" horiz-adv-x="910" d="M61 114q0 32 10 53q10 22 40 53l560 576q48 50 48 102q0 50 -37 84q-38 35 -89 35q-54 0 -92 -36t-38 -87q0 -34 15 -66l22 -43q12 -22 12 -53q0 -50 -32 -82t-82 -32q-78 0 -130 73q-53 74 -53 179q0 104 52 189q53 86 143 135q90 48 198 48q79 0 146 -24 q68 -26 117 -70q50 -46 75 -108q26 -63 26 -138q0 -67 -28 -132q-28 -66 -78 -116l-429 -434h297h24q103 -1 103 -90q0 -55 -43 -92q-44 -38 -102 -38h-25h-496q-62 0 -97 31q-37 31 -37 83z" />
<glyph unicode="3" horiz-adv-x="926" d="M55 303q0 102 52 175q51 72 122 72q41 0 73 -29q31 -28 31 -69q0 -22 -9 -54q-20 -68 -20 -90q0 -44 34 -75q32 -31 81 -31q58 0 110 37q51 37 82 100q31 62 31 131q0 116 -122 157q-85 25 -85 94q0 44 32 81l21 22l167 185h-227h-25q-102 3 -102 90q0 56 42 93 q40 37 103 37h24h386q84 0 121 -28q38 -29 38 -92q0 -58 -39 -100l-240 -259q155 -104 155 -281q0 -161 -97 -300q-65 -92 -159 -140q-94 -49 -216 -49q-106 0 -190 41q-83 41 -128 114q-46 73 -46 168z" />
<glyph unicode="4" horiz-adv-x="1059" d="M55 406q0 46 19 81q21 37 65 81l540 533q82 82 133 112q50 29 107 29q67 0 110 -40q44 -41 44 -99q0 -49 -31 -126l-203 -499h78h25q48 0 76 -23q27 -22 27 -67q0 -56 -43 -93q-44 -38 -103 -38h-24h-125l-53 -131l-11 -27q-25 -55 -61 -83q-38 -29 -87 -29q-43 0 -72 27 q-30 27 -30 68q0 35 15 69l11 27l32 79h-256q-83 0 -133 41t-50 108zM372 478h212l181 408z" />
<glyph unicode="5" horiz-adv-x="915" d="M55 285q0 101 46 163q45 63 116 63q45 0 75 -27q29 -29 29 -71q0 -23 -6 -46l-9 -40q-3 -16 -3 -34q0 -38 29 -64q29 -27 71 -27q57 0 111 42q52 40 87 109q33 68 33 142q0 57 -30 93t-77 36q-37 0 -72 -19l-66 -36q-31 -18 -68 -18q-46 0 -80 32q-33 32 -33 78 q0 22 17 67l163 399q27 66 58 84q30 18 111 18h336h25q106 -3 106 -93q0 -53 -44 -94q-43 -40 -106 -40h-25h-264l-74 -183q41 9 74 9q84 0 152 -41q66 -42 103 -118q37 -75 37 -173q0 -142 -63 -261q-65 -120 -174 -187q-109 -69 -241 -69q-99 0 -179 39q-78 37 -122 108 q-43 70 -43 159z" />
<glyph unicode="6" horiz-adv-x="872" d="M55 313q0 84 28 162q26 76 92 182l288 460q44 69 77 94q33 24 83 24q45 0 77 -29q31 -28 31 -70q0 -45 -33 -98l-17 -26l-122 -191q42 5 52 5q75 0 139 -41q63 -42 99 -112t36 -158q0 -108 -37 -203q-37 -96 -105 -173q-67 -76 -155 -117q-88 -42 -186 -42 q-100 0 -180 42q-79 42 -123 119t-44 172zM300 327q0 -50 34 -87q33 -37 80 -37q56 0 108 42q53 42 87 111q33 69 33 139q0 55 -34 90q-35 35 -87 35q-51 0 -103 -43q-54 -45 -85 -111q-33 -67 -33 -139z" />
<glyph unicode="7" horiz-adv-x="781" d="M102 84q0 22 11 49q13 31 35 65l493 806h-315h-25q-105 2 -105 92q0 53 44 94q44 39 105 39h25h397q80 0 117 -24q24 -14 40 -41q14 -28 14 -57q0 -47 -33 -103l-545 -901l-15 -26q-55 -90 -138 -90q-45 0 -74 28q-31 28 -31 69z" />
<glyph unicode="8" horiz-adv-x="921" d="M61 302q0 85 35 166q35 80 98 138q65 59 143 87q-41 45 -57 82q-17 39 -17 91q0 99 59 187q58 85 160 138q101 51 215 51q91 0 166 -35q72 -35 113 -101q40 -64 40 -149q0 -105 -60 -183q-59 -78 -165 -113q52 -46 75 -98q22 -50 22 -121q0 -95 -37 -176 q-37 -84 -103 -148q-69 -66 -151 -101q-83 -37 -179 -37q-161 0 -259 89t-98 233zM307 335q0 -56 36 -91q37 -35 90 -35q79 0 146 75q66 74 66 166q0 53 -36 86t-94 33q-50 0 -100 -33q-50 -35 -78 -88q-30 -54 -30 -113zM498 856q0 -45 32 -74q32 -30 80 -30q44 0 82 25 q38 23 64 65q24 41 24 83q0 52 -29 81q-29 28 -82 28q-41 0 -81 -25t-65 -67q-25 -40 -25 -86z" />
<glyph unicode="9" horiz-adv-x="872" d="M143 709q0 101 40 202q41 102 109 178q67 76 151 115q84 38 177 38q100 0 182 -42q81 -42 128 -116t47 -164q0 -67 -23 -150q-24 -81 -63 -144l-331 -522q-39 -64 -76 -90q-37 -28 -86 -28q-43 0 -74 31q-33 32 -33 69q0 47 53 126l124 187h-23q-5 -1 -16 -1 q-80 0 -147 41q-66 41 -102 111q-37 70 -37 159zM388 727q0 -50 35 -85q35 -36 83 -36q54 3 102 39t79 94q16 29 31 79q13 45 13 78q0 52 -34 89t-85 37q-102 -6 -173 -126q-51 -88 -51 -169z" />
<glyph unicode=":" horiz-adv-x="546" d="M82 112q0 38 19 70q20 32 51 51q32 18 67 18q40 0 71 -19q32 -19 51 -51q19 -31 19 -71q0 -58 -40 -97q-40 -40 -99 -40q-38 0 -69 19q-33 18 -51 51q-19 31 -19 69zM232 639q0 38 19 70q20 32 51 51q32 18 67 18q60 0 101 -41t41 -100q0 -56 -40 -96q-41 -41 -100 -41 q-38 0 -69 19q-33 18 -51 51q-19 31 -19 69z" />
<glyph unicode=";" horiz-adv-x="546" d="M27 -127q0 20 26 58l21 29l44 61q-34 55 -34 99q0 53 41 92t98 39q58 0 98 -40q39 -40 39 -99q0 -53 -28 -96q-30 -46 -102 -106q-58 -48 -91 -65q-31 -18 -57 -18q-19 0 -37 15q-18 13 -18 31zM218 639q0 38 19 70q20 32 51 51q32 18 67 18q40 0 72 -19t51 -51 q19 -31 19 -71q0 -56 -40 -96q-41 -41 -100 -41q-38 0 -69 19q-33 18 -51 51q-19 31 -19 69z" />
<glyph unicode="&#x3c;" horiz-adv-x="1161" d="M-218 -605q0 21 4 36q5 19 22 61l427 1054h-67h-25q-102 2 -102 89q0 55 43 92q41 37 102 37h24h114l127 314q61 152 153 220q89 67 240 67h114h25q103 -1 103 -90q0 -56 -43 -93q-44 -38 -103 -38h-25h-29q-85 0 -132 -34q-48 -34 -82 -115l-94 -231h356q59 0 74 -4 q32 -7 51 -33q20 -26 20 -59q0 -34 -15 -69l-11 -27l-144 -354h113h25q102 -1 102 -89q0 -54 -43 -91q-44 -38 -102 -38h-24h-159q-90 0 -140 36q-49 36 -49 100q0 33 20 82l134 328h-296l-449 -1106l-11 -27q-48 -112 -147 -112q-43 0 -71 28q-30 27 -30 66z" />
<glyph unicode="=" horiz-adv-x="815" d="M26 37q0 21 27 60l771 1088l9 13q32 41 73 41q24 0 42 -15t18 -36q0 -22 -26 -60l-772 -1089l-9 -12q-30 -42 -72 -42q-26 0 -43 16q-18 15 -18 36z" />
<glyph unicode="&#x3e;" horiz-adv-x="1163" d="M-218 -605q0 21 4 36q5 19 22 61l427 1054h-67h-25q-102 2 -102 89q0 55 43 92q41 37 102 37h24h114l127 314q42 102 91 164q46 58 117 88q49 22 104 29q52 7 165 7h236q83 0 121 -23q37 -22 37 -72q0 -31 -15 -69l-11 -27l-388 -957h105h24q102 -1 102 -89 q0 -53 -42 -91q-44 -38 -102 -38h-25h-180q-72 0 -115 34q-45 33 -45 88q0 41 30 111l370 911h-144q-85 0 -132 -34q-48 -34 -82 -115l-94 -231h70h24q103 -1 103 -89q0 -54 -43 -91q-44 -38 -102 -38h-24h-116l-449 -1106l-11 -27q-48 -112 -147 -112q-43 0 -71 28 q-30 27 -30 66z" />
<glyph unicode="?" horiz-adv-x="1010" d="M225 112q0 38 19 70q20 32 51 51q32 18 67 18q40 0 72 -19t51 -51q19 -31 19 -71q0 -56 -40 -96q-41 -41 -100 -41q-38 0 -69 19q-33 18 -51 51q-19 31 -19 69zM242 903q0 107 51 192t141 133q91 47 203 47q77 0 143 -23q66 -25 112 -66q48 -45 74 -101q26 -60 26 -128 q0 -94 -41 -165q-42 -71 -151 -159q-28 -23 -39 -31q-4 -3 -52 -44q-33 -27 -64 -59q-22 -22 -35 -46l-39 -88q-28 -66 -96 -66q-45 0 -77 32t-32 76q0 53 25 104q23 51 74 111q51 61 132 134q84 76 106 101q36 45 36 85q0 45 -35 77t-84 32q-34 0 -66 -17q-33 -18 -52 -46 t-19 -61q0 -21 18 -80q10 -31 10 -60q0 -45 -31 -75t-74 -30q-71 0 -117 64q-47 65 -47 157z" />
<glyph unicode="@" d="M68 0v1365h683v-1365h-683zM82 14h655v1337h-655v-1337z" />
<glyph unicode="A" horiz-adv-x="2194" d="M0 24q0 91 31 180q31 91 88 170q55 79 140 151q82 69 176 115q59 30 128 52q71 21 145 34q75 13 180 19q101 6 222 6h73l80 145q165 302 402 404q38 17 111 34q73 16 148 23q85 8 153 8q55 0 90 -29q33 -28 33 -75q0 -26 -21 -79l-172 -431h76h27q112 -3 112 -98 q0 -57 -47 -99q-46 -42 -111 -42h-27h-127l-111 -273h163h27q111 -1 111 -97q0 -38 -20 -70q-21 -33 -58 -52q-38 -20 -80 -20h-26h-214q-88 0 -141 45q-54 44 -54 117q0 54 40 153l80 197h-277l-331 -573q-51 -88 -122 -176q-181 -231 -435 -231q-127 0 -234 65 q-106 64 -167 178q-61 112 -61 249zM274 30q0 -98 61 -163q61 -67 151 -67q104 0 197 109q40 46 67 91l296 512h-85q-94 0 -177 -12q-83 -14 -152 -37q-74 -25 -124 -58q-74 -47 -124 -106q-52 -61 -81 -131t-29 -138zM1484 751h240l144 355q-71 -4 -125 -32t-103 -86 q-54 -63 -116 -169z" />
<glyph unicode="B" horiz-adv-x="1707" d="M-314 -424q0 112 59 207q57 93 158 137q104 46 261 46h349l471 1160h-112h-27q-55 2 -83 27q-29 26 -29 70q0 58 47 100t111 42h27h406q88 0 139 -10q55 -11 105 -38q79 -41 122 -114q44 -74 44 -168q0 -80 -31 -157t-87 -139q-18 -20 -50 -47q-26 -20 -55 -35 q-28 -14 -73 -30q183 -88 183 -299q0 -104 -39 -205q-41 -103 -113 -183q-74 -83 -169 -132q-53 -27 -120 -44q-69 -18 -154 -27q-81 -10 -183 -10h-147l-12 -28q-60 -133 -93 -191q-34 -60 -87 -117q-55 -58 -122 -100q-66 -40 -140 -63q-77 -23 -153 -23q-116 0 -207 48 q-91 46 -144 133q-52 85 -52 190zM-40 -412q0 -56 43 -95q44 -39 103 -39q91 0 174 74q84 75 136 199h-260q-64 0 -99 -12q-47 -17 -72 -49q-25 -34 -25 -78zM793 -34h81q193 0 299 58q84 47 135 133t51 179q0 57 -25 98t-71 58q-52 20 -165 20h-83zM1112 751q51 0 60 1 q55 0 90 7q38 6 64 19q27 12 57 39q38 35 64 89q25 51 25 101q0 43 -23 74q-22 28 -65 39q-22 6 -93 6h-16h-11z" />
<glyph unicode="C" horiz-adv-x="1216" d="M68 780q0 57 47 99t111 42h27h145q92 152 242 289q194 176 419 176q76 0 139 -24q62 -24 108 -67q43 -42 70 -103q25 -57 25 -129q0 -105 -58 -190q-58 -86 -163 -135q-87 -38 -246 -50q-70 -5 -124 -5h-261q-135 -241 -135 -450q0 -95 30 -154q28 -58 92 -85 q60 -28 166 -28h556h26q56 0 84 -25t28 -72q0 -38 -20 -70q-21 -33 -58 -52q-38 -20 -80 -20h-27h-580h-34q-131 0 -234 61q-105 62 -163 170q-59 109 -59 244q0 109 27 218q27 110 94 263h-55h-27q-55 2 -83 27q-29 26 -29 70zM698 921h194q109 0 160 21q44 18 66 49 q22 29 22 66q0 40 -32 67q-32 26 -81 26q-48 0 -96 -20q-46 -21 -98 -64q-79 -66 -135 -145z" />
<glyph unicode="D" horiz-adv-x="1836" d="M-314 -423q0 77 27 145t76 118q49 52 114 80q104 46 260 46h355l471 1160h-100h-26q-55 2 -83 27q-29 26 -29 70q0 58 47 100t111 42h27h292q128 0 222 -22q95 -22 165 -69q57 -36 95 -80q41 -46 69 -105q28 -57 43 -126q14 -70 14 -144q0 -130 -36 -268 q-36 -139 -100 -263t-155 -230q-89 -104 -198 -179q-64 -42 -126 -70t-132 -47q-137 -35 -325 -35h-62l-13 -28q-60 -136 -95 -195q-35 -58 -85 -113q-55 -58 -122 -100q-66 -40 -140 -63q-77 -23 -155 -23q-117 0 -208 48q-92 47 -145 134q-53 86 -53 190zM-40 -412 q0 -57 44 -95q44 -39 104 -39q92 0 175 73q85 74 138 200h-265q-64 0 -99 -12q-47 -17 -72 -49q-25 -34 -25 -78zM799 -34h32q110 0 203 29q92 29 172 91q79 60 151 155q101 132 160 287q58 152 58 286q0 71 -20 131q-21 56 -60 97q-40 40 -96 62q-57 22 -129 22z" />
<glyph unicode="E" horiz-adv-x="1567" d="M-314 -423q0 77 27 145t76 118q49 52 114 80q104 46 260 46h354l222 546h-13h-20q-55 2 -83 27q-29 26 -29 70q0 58 47 100t111 42h27h57l201 489q31 75 63 100q31 25 95 25h31h516h27q55 0 83 -25q29 -26 29 -72q0 -60 -46 -100q-46 -42 -113 -42h-26h-426l-152 -375 h124h27q112 -3 112 -98q0 -57 -47 -99q-46 -42 -111 -42h-27h-176l-221 -546h690h27q111 -2 111 -97q0 -61 -46 -101q-47 -41 -111 -41h-27h-741l-13 -28q-60 -136 -95 -195q-35 -58 -85 -113q-80 -86 -191 -136t-226 -50q-117 0 -208 48q-92 47 -145 133t-53 191zM-40 -412 q0 -57 44 -95q44 -39 104 -39q93 0 175 73q84 75 137 200h-264q-64 0 -99 -12q-47 -17 -72 -49q-25 -34 -25 -78z" />
<glyph unicode="F" horiz-adv-x="1805" d="M27 6q0 151 69 284q67 131 194 234q123 101 293 160q165 57 359 62l141 4q30 0 44 1l192 483l11 28q21 54 55 79q33 24 92 24h31h513h27q55 0 83 -25q29 -26 29 -72q0 -60 -46 -100q-46 -42 -113 -42h-26h-427l-153 -375h129h27q111 -1 111 -98q0 -37 -21 -70 q-21 -34 -58 -52q-37 -19 -79 -19h-26h-180l-194 -479q-75 -184 -193 -316q-53 -57 -115 -95q-60 -38 -139 -62q-72 -22 -151 -22q-136 0 -245 61q-111 61 -172 167q-62 107 -62 240zM306 36q0 -66 29 -122q28 -55 77 -86t110 -31q66 0 130 33q63 33 104 89q26 34 68 107 q35 63 54 113l152 373h-54q-107 0 -202 -18q-94 -19 -168 -54q-92 -44 -156 -107q-66 -64 -105 -144q-39 -79 -39 -153z" />
<glyph unicode="G" horiz-adv-x="1487" d="M-41 -307q0 152 87 277q28 42 63 76t78 63.5t97 54.5q89 41 180 57q87 14 245 16l159 2l34 85q-74 -28 -153 -28q-76 0 -141 30q-65 28 -115 84q-46 54 -65 116q-20 63 -22 157h-138h-26q-55 2 -83 27q-29 26 -29 70q0 57 47 99t111 42h26h145q68 138 172 248 q101 107 216 162q114 55 237 55q98 0 180 -41q81 -41 124 -114q44 -74 44 -165q0 -107 -55 -193q-55 -87 -155 -135q-72 -35 -227 -50q-65 -5 -101 -5h-227v-13q-1 -3 -1 -9q0 -59 40 -93q38 -34 108 -34q71 0 139 40l54 31q70 40 119 40q54 0 90 -33t36 -80q0 -27 -4 -42 q-4 -16 -24 -63l-77 -188h149h27q111 -1 111 -97q0 -38 -20 -70q-21 -33 -58 -52q-38 -20 -80 -20h-26h-200l-74 -184q-56 -143 -91 -209q-36 -68 -89 -138q-162 -209 -401 -209q-90 0 -171 33t-140 92q-60 60 -92 139q-33 79 -33 169zM224 -302q0 -50 24 -93q23 -42 65 -67 q41 -24 89 -24q56 0 114 38q55 37 95 100q50 77 102 205l58 143q-129 -2 -196 -9q-68 -9 -127 -30q-105 -38 -164 -107q-60 -69 -60 -156zM740 921h194q108 0 160 21q44 18 66 49q22 29 22 66q0 41 -32 67q-34 26 -82 26q-80 0 -166 -60q-88 -62 -162 -169z" />
<glyph unicode="H" horiz-adv-x="2233" d="M27 6q0 151 69 284q67 131 194 234q123 101 292 160q163 57 359 62l142 4q30 0 44 1l195 479l11 29q53 120 160 120q49 0 81 -29t32 -72q0 -35 -16 -74l-12 -29l-172 -424h319l193 475l12 30q53 123 161 123q47 0 79 -29q32 -30 32 -74q0 -38 -28 -107l-170 -418h77h27 q111 -3 111 -98q0 -37 -21 -70q-21 -34 -58 -52q-37 -19 -79 -19h-26h-128l-111 -273h172h27q55 0 83 -25q29 -26 29 -72q0 -58 -47 -100q-46 -42 -111 -42h-27h-205q-63 0 -102 15q-49 21 -78 63q-30 41 -30 87q0 55 22 105l16 39l83 203h-319l-195 -479 q-76 -187 -193 -316q-76 -85 -184 -131q-109 -48 -225 -48q-139 0 -249 61q-112 60 -173 168q-63 106 -63 239zM305 36q0 -101 63 -170t154 -69q66 0 128 32q63 32 106 90q26 34 68 107q35 63 54 113l152 373h-54q-107 0 -202 -18q-94 -19 -168 -54q-89 -43 -157 -108 q-67 -64 -105 -143q-39 -79 -39 -153z" />
<glyph unicode="I" horiz-adv-x="1204" d="M177 838q0 146 76 273q75 126 203 201t274 75q77 0 149 -26q69 -25 119 -71q52 -47 79 -106q29 -63 29 -132q0 -104 -52 -233l-236 -580h168h26q55 0 83 -25q29 -26 29 -72q0 -38 -20 -70q-21 -33 -58 -52q-38 -20 -80 -20h-27h-182q-59 0 -79 4q-24 5 -52 18 q-44 21 -68 59q-25 37 -25 83q0 55 41 160l201 495l39 101q22 54 22 92q0 54 -42 91q-43 38 -99 38q-66 0 -125 -41t-95 -108t-36 -140q0 -96 98 -137q60 -25 77 -43q18 -19 18 -59q0 -57 -43 -94q-43 -39 -104 -39q-81 0 -153 48q-73 49 -113 130q-42 83 -42 180z" />
<glyph unicode="J" horiz-adv-x="1504" d="M-48 -307q0 152 87 277q42 61 102 110.5t135 83.5q89 41 179 57q88 14 246 16l158 2l232 580l39 101q23 60 23 92q0 54 -42 91q-43 38 -100 38q-66 0 -125 -41t-95 -108t-36 -140q0 -96 98 -137q61 -24 78 -43q18 -19 18 -59q0 -57 -43 -94q-43 -39 -104 -39 q-81 0 -153 48q-73 49 -113 130q-42 83 -42 180q0 146 75 273q75 126 203 201t273 75q80 0 149 -25t119 -71q52 -49 79 -107q29 -63 29 -132q0 -102 -52 -233l-232 -580h149h26q55 0 83 -25q29 -26 29 -72q0 -38 -20 -70q-21 -33 -58 -52q-38 -20 -80 -20h-27h-196l-74 -184 q-56 -143 -91 -209q-36 -68 -89 -138q-162 -209 -401 -209q-90 0 -171 33t-140 92q-60 60 -92 139q-33 79 -33 169zM224 -302q0 -50 24 -93q23 -42 65 -67q41 -24 89 -24q89 0 166 83q75 82 145 260l57 143q-127 -2 -195 -9q-68 -9 -127 -30q-106 -37 -165 -107 q-59 -71 -59 -156z" />
<glyph unicode="K" horiz-adv-x="1777" d="M177 838q0 146 76 273q75 126 204 201q128 75 274 75q80 0 148 -25q66 -25 120 -71q53 -48 80 -107q29 -63 29 -132q0 -104 -52 -233l-35 -85l525 549l23 24q66 67 129 67q52 0 83 -31q32 -32 32 -84q0 -57 -58 -118l-24 -24l-477 -498l211 -574q15 -40 42 -57 q28 -17 78 -17h323h27q54 0 85 -26q30 -27 30 -74q0 -59 -47 -101q-47 -43 -115 -43h-27h-332q-89 0 -140 15q-52 15 -83 55q-34 44 -61 119l-265 716l-207 -509q-33 -83 -73 -117q-41 -35 -99 -35q-46 0 -78 30q-32 29 -32 73q0 35 16 76l12 29l260 640l38 101q21 56 21 84 q0 36 -20 68q-20 29 -56 50q-34 19 -74 19q-65 0 -124 -40q-61 -40 -97 -108q-37 -67 -37 -139q0 -46 26 -83t70 -56l60 -24q20 -8 33 -31t13 -51q0 -35 -18 -64q-20 -30 -52 -47q-34 -18 -75 -18q-81 0 -155 48t-114 130q-41 82 -41 180z" />
<glyph unicode="L" horiz-adv-x="1541" d="M-259 -423q0 111 59 206q57 93 158 137q104 46 260 46h353l299 737h-120h-26q-112 1 -112 98q0 57 47 99t111 42h26h171l46 113q68 166 165 245t232 79q92 0 165 -39q74 -39 116 -108q41 -71 41 -156q0 -108 -59 -193q-60 -86 -169 -132q-109 -48 -247 -48h-105 l-299 -737h693h26q55 0 83 -25q29 -26 29 -72q0 -38 -20 -70q-21 -33 -58 -52q-38 -20 -80 -20h-27h-743l-13 -28q-60 -136 -95 -195q-35 -58 -85 -113q-80 -86 -191 -136t-226 -50q-116 0 -208 48q-92 47 -145 134q-52 85 -52 190zM15 -412q0 -58 43 -95q42 -39 104 -39 q93 0 175 73q84 75 137 200h-263q-65 0 -100 -12q-45 -15 -70 -49q-26 -35 -26 -78zM1249 942h47q32 0 68 10q38 11 61 26q22 14 37 42q15 27 15 52q0 33 -20 56q-21 22 -54 22q-37 0 -66 -32q-28 -33 -60 -107z" />
<glyph unicode="M" horiz-adv-x="2316" d="M55 13q0 198 110 371q109 172 295 275q185 101 397 101q89 0 139 -32q48 -33 48 -93q0 -68 -48 -98q-50 -31 -169 -38q-101 -5 -191 -43q-91 -39 -158 -101q-64 -60 -103 -145q-38 -84 -38 -175q0 -107 60 -168q60 -63 160 -63q109 0 205 102q52 58 116 185q43 85 81 182 l397 977q29 70 61 99q32 30 79 30q57 0 89 -35t56 -127l61 -230l300 294q100 98 185 98q58 0 101 -36q42 -36 42 -87q0 -38 -16 -74l-22 -56l-360 -887h162h26q54 0 83 -26t29 -72q0 -57 -47 -99q-46 -42 -111 -42h-27h-190q-83 0 -132 25q-37 19 -60 59q-24 39 -24 82 q0 35 7 60q9 32 35 94l256 601l-192 -207q-68 -74 -134 -74q-77 0 -103 111l-28 124l-244 -602q-48 -118 -93 -225q-35 -84 -78.5 -158.5t-85.5 -126.5q-91 -114 -203 -168q-111 -55 -245 -55q-104 0 -194 35q-91 35 -153 97q-64 62 -97 150q-34 84 -34 191z" />
<glyph unicode="N" horiz-adv-x="2174" d="M55 13q0 198 110 371t296 275q185 101 395 101q90 0 140 -32q48 -33 48 -93q0 -68 -48 -98q-50 -31 -169 -38q-101 -5 -191 -43q-91 -39 -158 -101q-64 -60 -103 -145q-38 -84 -38 -174q0 -106 60 -169t161 -63q109 0 205 102q53 58 116 185q45 89 82 182l396 975 q29 69 66 100t94 31q126 0 138 -148l52 -668l270 668l16 40q22 52 53 72q29 20 84 21l42 1h204h27q55 0 83 -25q29 -26 29 -72q0 -58 -47 -100q-46 -42 -111 -42h-27h-121l-405 -996l-19 -47q-22 -48 -59 -72q-37 -25 -82 -25q-103 0 -134 88q-14 35 -18 112l-47 602 l-209 -515q-39 -97 -93 -225q-56 -130 -121 -226q-67 -98 -141 -159q-74 -62 -160 -92q-86 -31 -189 -31q-139 0 -249 59t-168 166q-60 108 -60 248z" />
<glyph unicode="O" horiz-adv-x="1379" d="M68 780q0 57 47 99t111 42h27h140l28 38q84 117 146 180q59 62 136 118q179 128 346 128q98 0 180 -41q81 -40 126 -113t45 -166q0 -69 -26 -132q-25 -62 -75 -112q-48 -48 -120 -83q-78 -35 -237 -50q-68 -5 -105 -5h-300q-67 -128 -108 -257t-41 -220q0 -107 59 -174 q58 -67 149 -67q162 0 304 204q107 154 158 342l17 60q32 123 132 123q53 0 87 -39q33 -39 33 -100q0 -62 -24 -149q-24 -88 -69 -182q-49 -99 -104 -177q-225 -328 -536 -328q-134 0 -241 63q-106 61 -165 175q-59 113 -59 255q0 198 128 471h-50h-27q-55 2 -83 27 q-29 26 -29 70zM693 921h195q108 0 160 21q43 20 65 49q23 29 23 66q0 41 -32 67q-34 26 -82 26q-79 0 -166 -60q-87 -61 -163 -169z" />
<glyph unicode="P" horiz-adv-x="1812" d="M55 12q0 196 110 371q55 87 129.5 156t165.5 119q186 102 396 102q90 0 140 -32q48 -33 48 -93q0 -68 -48 -98q-49 -31 -168 -38q-102 -5 -192 -43q-91 -39 -158 -101q-64 -60 -103 -145q-38 -84 -38 -175q0 -107 60 -168q59 -63 157 -63q109 0 205 102q52 58 115 185 q45 89 82 182l346 853h-108h-27q-111 2 -111 98q0 57 47 99t111 42h26h381q192 0 284 -71q91 -72 91 -223q0 -67 -19 -125q-20 -61 -57 -110q-37 -51 -90 -87q-52 -36 -121 -51t-172 -15h-137l-167 -410q-48 -118 -93 -225q-111 -258 -260 -383t-350 -125q-139 0 -248 59 q-109 58 -168 166q-59 107 -59 247zM1496 921h82q77 0 117 34q41 35 41 97q0 35 -23 55q-23 19 -67 19h-66z" />
<glyph unicode="Q" horiz-adv-x="1477" d="M130 437q0 162 59 344t149 304q67 90 149 155q85 67 179 103q93 36 180 36q127 0 222 -59q94 -58 147 -167q52 -108 52 -254q0 -110 -24.5 -220.5t-73.5 -220.5q-97 -223 -249 -352l47 -82q20 -36 48 -46q27 -12 90 -12h371h26q55 0 83 -25q29 -26 29 -72q0 -58 -47 -100 q-46 -42 -111 -42h-27h-468q-50 0 -93 28q-46 30 -73 76l-91 156q-85 -29 -164 -29q-189 0 -299 129q-111 128 -111 350zM395 440q0 -68 21 -121q20 -54 57 -82q36 -30 80 -30q12 0 28 3l-38 63q-19 32 -27 49q-9 15 -14 36q-5 20 -5 37q0 49 35 84t84 35q42 0 70 -20 q27 -21 61 -82l47 -85q55 66 89 123q29 51 57 130q29 80 47 168q15 83 15 154q0 105 -50 169q-49 63 -131 63q-166 0 -290 -217q-60 -103 -97 -238q-39 -138 -39 -239z" />
<glyph unicode="R" horiz-adv-x="2023" d="M55 13q0 198 110 371q109 172 295 275q185 101 397 101q89 0 139 -32q48 -33 48 -93q0 -68 -48 -98q-50 -31 -169 -38q-101 -5 -191 -43q-91 -39 -158 -101q-64 -60 -103 -145q-38 -84 -38 -175q0 -107 60 -168q59 -63 158 -63q109 0 205 102q50 55 116 185q43 85 81 182 l347 853h-103h-27q-112 1 -112 98q0 57 47 99t111 42h27h332q93 0 110 -1q19 -1 58 -10q76 -16 135 -64q56 -46 88 -117q31 -69 31 -156q0 -102 -43 -195q-45 -97 -119 -164q-74 -66 -181 -95l210 -501q42 -97 105 -97l42 1h418h26q56 0 84 -25t28 -72q0 -38 -20 -70 q-21 -33 -58 -52q-38 -20 -80 -20h-27h-461q-91 0 -159 48q-69 46 -105 132l-289 695l-133 -329q-88 -212 -94 -225q-56 -130 -121 -226q-67 -98 -141 -159q-74 -62 -160 -92q-86 -31 -189 -31q-140 0 -250 59q-108 58 -169 167q-60 106 -60 247zM1433 751l28 2q67 4 104 13 q32 8 66 30q51 34 80 85q28 50 28 108q0 66 -33 102q-34 36 -97 36q-17 0 -24 -1z" />
<glyph unicode="S" horiz-adv-x="1374" d="M61 41q0 130 60 247q58 116 173 207q122 97 226 97q54 0 88 -31t34 -79q0 -67 -78 -115l-79 -49q-73 -46 -116 -121q-45 -76 -45 -151q0 -79 37 -140q36 -62 101 -98t143 -36q92 0 172 47q76 46 124 127q46 79 46 172q0 103 -77 213q-32 44 -65 82q-6 9 -45 51 q-6 8 -15.5 18t-15.5 16q-96 107 -136 185h-269h-27q-55 2 -83 27q-29 26 -29 70q0 57 47 99t111 42h27h171q11 98 57 183q46 83 125 147q79 62 176 95q98 33 209 33q112 0 199 -43q88 -44 135 -119q48 -76 48 -175q0 -66 -24 -128q-25 -61 -69 -109t-104 -79 q-30 -15 -69 -24q-35 -9 -89 -14q-55 -5 -119 -5h-100l92 -116l53 -64q74 -96 114 -197q40 -102 40 -203q0 -120 -48 -225t-133 -184q-85 -80 -201 -123q-117 -44 -242 -44q-154 0 -274 66q-120 64 -188 182q-68 116 -68 266zM796 921h240q94 0 149 32q53 32 53 86 q0 47 -42 75q-43 27 -113 27q-107 0 -192 -67q-88 -68 -95 -153z" />
<glyph unicode="T" horiz-adv-x="1612" d="M55 13q0 198 110 371q109 172 295 275q185 101 397 101q89 0 139 -32q48 -33 48 -93q0 -68 -48 -98q-50 -31 -169 -38q-101 -5 -191 -43q-91 -39 -158 -101q-64 -60 -103 -145q-38 -84 -38 -175q0 -105 60 -168t160 -63q110 0 206 102q50 55 116 185q43 85 81 182 l347 853h-195h-27q-111 2 -111 98q0 57 46 99q47 42 111 42h27h657h27q111 -1 111 -97q0 -38 -20 -70q-21 -33 -58 -52q-38 -20 -80 -20h-26h-182l-347 -853q-48 -118 -93 -225q-35 -84 -78.5 -158.5t-85.5 -126.5q-91 -114 -203 -168q-111 -55 -245 -55q-213 0 -346 130 q-134 131 -134 343z" />
<glyph unicode="U" horiz-adv-x="1763" d="M177 838q0 146 76 273q75 126 204 201q128 75 274 75q77 0 149 -26q69 -25 119 -71q52 -47 79 -106q29 -63 29 -132q0 -108 -52 -233l-152 -375q-33 -81 -33 -131q0 -49 34 -80q32 -31 87 -31q45 0 80 20q33 19 65 66q29 45 64 130l329 809q25 62 47 90t55 38 q31 10 98 10h217h26q56 0 84 -25t28 -72q0 -38 -20 -70q-21 -33 -58 -52q-38 -20 -80 -20h-26h-133l-319 -785q-31 -74 -58.5 -123.5t-62.5 -93t-70 -71.5q-112 -91 -275 -91q-103 0 -191 44t-137 118q-50 76 -50 167q0 51 14 112q14 58 51 152l107 264l38 101q23 57 23 86 q0 55 -43 95t-104 40q-66 0 -124 -40q-60 -40 -96 -108q-37 -67 -37 -140q0 -97 101 -138q59 -22 80 -43q19 -19 19 -60q0 -55 -42 -93q-43 -39 -104 -39q-81 0 -155 48t-114 130q-41 82 -41 180z" />
<glyph unicode="V" horiz-adv-x="1762" d="M177 828q0 109 44 209q43 98 122 177q80 79 181 121q103 44 212 44t203 -56q92 -55 121 -138q15 -40 23 -88q6 -35 11 -110q4 -60 4 -168v-396l484 825l25 43q25 43 54 58q27 14 88 15l39 1h177h26q56 0 84 -25t28 -72q0 -38 -20 -70q-21 -33 -58 -52q-38 -20 -80 -20 h-26h-116l-615 -1036q-43 -72 -84 -102q-40 -30 -97 -30q-37 0 -73 17q-33 16 -52 46q-24 39 -26 125l-16 673q-3 124 -6 160q-5 39 -14 62q-15 42 -45 66q-32 23 -71 23q-64 0 -123 -40q-60 -41 -97 -104q-37 -64 -37 -131q0 -60 45 -104q43 -43 110 -43l87 2q42 0 74 -29 q31 -28 31 -67q0 -47 -31 -82q-31 -37 -89 -57q-58 -21 -131 -21q-101 0 -184 50q-84 49 -133 136q-49 85 -49 188z" />
<glyph unicode="W" horiz-adv-x="2413" d="M177 827q0 108 44 210q43 98 122 177q80 79 181 121q103 44 212 44q273 0 338 -251q11 -47 17 -110q5 -61 7 -199l6 -348l356 776q62 132 181 132q72 0 115 -42t43 -109v-12l-19 -761l450 775l21 39q33 55 70 76q37 20 99 20h195h27q55 0 83 -25q29 -26 29 -72 q0 -58 -47 -100q-46 -42 -111 -42h-27h-112l-616 -1059q-33 -59 -74 -89q-41 -29 -93 -29q-72 0 -114 48t-42 132l25 716l-363 -778q-54 -114 -159 -114q-77 0 -117 46q-41 46 -44 130l-20 690q0 164 -21 222q-14 42 -44 65q-31 24 -71 24q-64 0 -123 -40q-60 -41 -97 -104 q-37 -64 -37 -131q0 -62 45 -104q43 -43 110 -43l87 2q42 0 74 -29q31 -28 31 -67q0 -47 -31 -82q-31 -37 -89 -57q-58 -21 -131 -21q-75 0 -142 29q-68 29 -117 80q-52 52 -79 120q-28 66 -28 144z" />
<glyph unicode="X" horiz-adv-x="1567" d="M177 812q0 107 44 209q43 99 122 179q78 79 178 124q100 44 206 44q87 0 160 -35q71 -35 119 -101q47 -66 67 -156l21 -100l222 279q5 7 19 24q9 12 12 16.5t7 8.5q30 39 53 50q25 11 81 11h211h26q56 0 84 -25t28 -72q0 -38 -20 -70q-21 -33 -58 -52q-38 -20 -80 -20 h-26h-133l-365 -464l126 -632q9 -38 31 -51q20 -13 78 -13h379h27q55 0 83 -25q29 -26 29 -72q0 -58 -47 -100q-46 -42 -111 -42h-27h-379h-54q-81 0 -130 20q-48 19 -76 65q-28 43 -45 129l-89 467l-293 -356l-21 -27q-34 -41 -69 -60q-34 -19 -73 -19q-51 0 -84 34 q-34 33 -34 82q0 27 15 57q13 27 56 82l434 533l-38 211q-31 169 -148 169q-61 0 -119 -40q-61 -42 -94 -104q-36 -64 -36 -131q0 -46 24 -81q23 -35 62 -44l50 -10q45 -9 70 -37q26 -29 26 -68q0 -62 -51 -104t-126 -42q-91 0 -165 48q-73 46 -116 130q-43 82 -43 181z" />
<glyph unicode="Y" horiz-adv-x="1801" d="M177 838q0 146 76 273q75 126 204 201q128 75 274 75q80 0 148 -25t121 -72q51 -46 79 -109q28 -62 28 -135q0 -78 -25 -149q-6 -18 -39 -107q-36 -94 -36 -142q0 -47 35 -79q35 -33 86 -33q87 0 149 86q22 32 38 63q18 38 35 80l193 476q28 68 69 97q41 27 114 27h236 h27q55 0 83 -25q29 -26 29 -72q0 -58 -47 -100q-46 -42 -111 -42h-27h-145l-361 -887h136h27q55 0 83 -25q29 -26 29 -72q0 -60 -46 -100q-46 -42 -113 -42h-26h-187l-74 -184q-56 -143 -91 -209q-36 -68 -89 -138q-162 -209 -401 -209q-90 0 -171 33q-79 32 -139 92 q-59 59 -92 139q-33 79 -33 169q0 99 38 190q37 88 112 161q73 72 176 120q89 41 180 57q88 14 248 16l159 2l34 83q-54 -26 -119 -26q-140 0 -226 79q-42 39 -71 103t-29 125q0 57 33 159q26 84 56 158q23 60 23 91q0 53 -42 92q-44 38 -100 38q-66 0 -125 -41 q-60 -43 -95 -109q-37 -67 -37 -139q0 -96 98 -137q59 -22 79 -42q18 -19 18 -60q0 -57 -43 -94q-43 -39 -104 -39q-82 0 -154 48q-73 49 -113 130q-42 83 -42 180zM492 -302q0 -50 24 -93q23 -42 65 -67q41 -24 89 -24q57 0 113 38q58 39 97 100q47 74 101 205l58 143 q-129 -2 -196 -9q-67 -9 -126 -30q-107 -38 -166 -107q-59 -70 -59 -156z" />
<glyph unicode="Z" horiz-adv-x="1530" d="M-27 -258q0 145 75 262q73 117 206 177q129 58 309 58h371q-38 141 -190 222q-52 28 -71 44q-23 20 -33 40t-10 49q0 45 57 111l360 421h-413h-27q-111 2 -111 98q0 57 47 99t111 42h26h578q167 0 167 -133q0 -53 -56 -118l-427 -487q120 -88 184 -185q66 -99 76 -203 h131h26q54 0 83 -26t29 -72q0 -57 -47 -99q-46 -42 -111 -42h-27h-74q-15 -202 -116 -375q-102 -173 -264 -272q-163 -100 -348 -100q-144 0 -262 64q-119 63 -183 175q-66 112 -66 250zM234 -263q0 -64 35 -120t96 -87q61 -32 131 -32q107 0 204 67q97 65 163 180 q65 115 86 255h-236q-9 0 -81 -3q-129 -6 -179 -16q-53 -10 -102 -41q-56 -36 -86 -89q-31 -52 -31 -114z" />
<glyph unicode="[" horiz-adv-x="952" d="M96 -110q0 35 44 146l585 1425q31 75 64 101q31 25 93 25l32 -1h202h27q111 -1 111 -97q0 -37 -21 -70q-21 -34 -58 -52q-37 -19 -79 -19h-26h-112l-547 -1344h158h26q112 -1 112 -97q0 -28 -16 -59q-17 -33 -42 -52q-38 -31 -126 -31h-267q-71 0 -115 35q-45 34 -45 90z " />
<glyph unicode="\" horiz-adv-x="947" d="M307 1383q0 35 29 61q29 24 69 24q54 0 76 -39q12 -17 29 -95l289 -1319q7 -28 7 -51q0 -41 -24 -63q-23 -22 -66 -22q-85 0 -110 112l-275 1254l-10 45q-14 68 -14 93z" />
<glyph unicode="]" horiz-adv-x="952" d="M-44 -137q0 39 22 71q21 32 57 52q35 19 80 19h26h112l547 1343h-158h-27q-111 2 -111 97q0 66 58 111q38 31 126 31h267q74 0 117 -34t43 -91q0 -38 -45 -146l-584 -1425q-22 -53 -42 -79t-46 -36q-28 -11 -70 -11l-31 1h-202h-27q-112 1 -112 97z" />
<glyph unicode="^" d="M68 0v1365h683v-1365h-683zM82 14h655v1337h-655v-1337z" />
<glyph unicode="_" horiz-adv-x="1024" d="M0 -273h1024v-171h-1024v171z" />
<glyph unicode="`" horiz-adv-x="571" d="M137 1088q0 33 22 52q23 20 53 20h74q42 0 61 -12q21 -15 34 -46l41 -95q12 -28 12 -54q0 -24 -18 -41q-19 -18 -43 -18q-29 0 -63 25l-119 88q-32 23 -43 40t-11 41z" />
<glyph unicode="a" horiz-adv-x="957" d="M27 286q0 123 62 238q62 114 161 184q100 70 210 70q128 0 186 -88q50 74 130 74q44 0 74 -27t30 -66q0 -31 -26 -97l-145 -356h110h24q102 -1 102 -89q0 -53 -42 -91q-44 -38 -102 -38h-25h-128q-46 0 -72 16q-28 17 -44 51l-18 -15q-32 -27 -60 -40q-28 -12 -68 -12 h-119q-107 0 -173 80q-67 79 -67 206zM263 312q0 -47 22 -72q21 -27 61 -27h39q22 0 53 19q29 18 37 36l75 185l7 15q8 21 8 37q0 30 -26 51q-27 21 -64 21t-75 -23q-38 -24 -69 -64q-33 -42 -50 -85q-18 -46 -18 -93z" />
<glyph unicode="b" horiz-adv-x="888" d="M7 95q0 33 15 70l11 27l420 1033l11 27q48 113 147 113q45 0 73 -27q29 -27 29 -67q0 -36 -25 -98l-166 -409q47 14 78 14q76 0 136 -39t93 -111q32 -75 32 -163q0 -250 -192 -403q-76 -62 -164 -62h-87q-56 0 -95 16q-40 16 -83 55q-16 -32 -51 -52q-34 -19 -76 -19 q-46 0 -75 28q-31 27 -31 67zM323 275q29 -38 53 -50q23 -12 69 -12q32 0 47 7q17 6 38 27q45 45 75 112q30 66 30 122q0 44 -25 72q-25 27 -68 27q-42 0 -83 -38q-41 -37 -69 -103z" />
<glyph unicode="c" horiz-adv-x="782" d="M27 317q0 121 60 229q59 107 159 170q99 63 214 63q119 0 192 -67t73 -173q0 -46 -17 -85q-18 -39 -48 -60q-31 -22 -69 -22t-64 24t-26 60l1 47q0 29 -18 48t-47 19q-66 0 -120 -68q-55 -68 -55 -151q0 -41 16 -72t44 -43q47 -18 130 -18h189h25q102 -1 102 -89 q0 -54 -43 -91q-44 -38 -102 -38h-24h-289q-81 0 -146 41q-66 41 -101 113q-36 72 -36 163z" />
<glyph unicode="d" horiz-adv-x="968" d="M27 276q0 96 36 187q34 90 95 161q59 70 138 112q78 42 159 42q120 0 192 -87l223 548l11 27q50 113 148 113q44 0 74 -27q29 -27 29 -68q0 -29 -15 -70l-11 -27l-394 -969h114h25q50 0 76 -22q26 -23 26 -67q0 -54 -43 -91q-44 -38 -102 -38h-24h-134q-79 0 -115 64 q-61 -64 -116 -64h-161q-99 0 -165 79q-66 80 -66 197zM263 303q0 -90 84 -90h45q23 0 49 17q27 17 34 38l76 185l6 15q8 21 8 37q0 30 -26 51q-27 21 -64 21q-49 0 -99 -41q-49 -40 -81 -105q-32 -66 -32 -128z" />
<glyph unicode="e" horiz-adv-x="816" d="M27 309q0 127 61 234q60 107 163 171q101 64 221 64q86 0 149 -31q66 -32 101 -89q36 -58 36 -131q0 -70 -36 -126q-37 -57 -97 -83q-37 -15 -64 -19q-31 -6 -95 -6h-200q2 -75 113 -75h297h24q102 -1 102 -89q0 -53 -42 -91q-44 -38 -102 -38h-25h-283q-77 0 -121 12 q-45 12 -85 40q-57 42 -87 108q-30 65 -30 149zM314 475h111q103 0 103 45q0 23 -19 39q-19 15 -48 15q-94 0 -147 -99z" />
<glyph unicode="f" horiz-adv-x="758" d="M-218 -605q0 21 4 36q5 19 22 61l427 1054h-67h-25q-102 2 -102 89q0 55 43 92q41 37 102 37h24h114l127 314q61 152 153 220q89 67 240 67h114h25q103 -1 103 -90q0 -56 -43 -93q-44 -38 -103 -38h-25h-29q-85 0 -132 -34q-48 -34 -82 -115l-94 -231h138h24 q103 -1 103 -89q0 -54 -43 -91q-44 -38 -102 -38h-24h-184l-449 -1106l-11 -27q-48 -112 -147 -112q-43 0 -71 28q-30 27 -30 66z" />
<glyph unicode="g" horiz-adv-x="878" d="M-321 -390q0 65 26 128q25 61 74 111q45 48 112 79q56 25 112 35t146 10h215l31 77q-39 -22 -63 -30q-26 -8 -58 -8q-102 0 -170 74t-68 187q0 97 36 187q35 90 99 163q65 76 142 115q77 40 160 40q65 0 109 -19q45 -19 76 -61q42 80 130 80q44 0 75 -26q29 -26 29 -67 q0 -30 -26 -96l-251 -616h120h25q102 -3 102 -89q0 -55 -43 -92q-44 -38 -102 -38h-24h-166l-42 -103q-55 -133 -118 -212q-64 -80 -146 -121q-84 -41 -184 -41q-99 0 -182 44q-83 43 -129 120q-47 77 -47 169zM-87 -390q0 -48 35 -80q34 -33 85 -33q84 0 158 98 q35 46 84 159h-173q-89 0 -139 -38t-50 -106zM280 323q0 -105 98 -105q36 0 68 17q30 17 39 37l81 197q11 30 11 42q0 30 -26 50q-28 20 -64 20q-47 0 -97 -38q-49 -38 -79 -99q-31 -61 -31 -121z" />
<glyph unicode="h" horiz-adv-x="1043" d="M27 74q0 31 15 68l11 26l435 1072q19 47 42 79q22 31 50 45q25 13 63 13q43 0 72 -26q28 -27 28 -67q0 -31 -14 -68l-11 -27l-190 -468q72 38 98 47q30 10 77 10q61 0 110 -24q50 -24 78 -66q28 -43 28 -96q0 -54 -23 -112l-106 -262h115h24q103 -1 103 -89 q0 -54 -43 -91q-44 -38 -102 -38h-24h-202q-66 0 -107 37q-43 37 -43 94q0 35 12 62l10 25l92 226q17 43 17 65q0 25 -21 41q-20 16 -54 16q-102 0 -173 -174l-112 -274l-10 -27q-47 -110 -145 -110q-42 0 -71 27q-29 26 -29 66z" />
<glyph unicode="i" horiz-adv-x="557" d="M27 136q0 30 21 82l165 406l11 27q48 113 148 113q45 0 73 -27q29 -27 29 -69q0 -32 -14 -69l-12 -27l-143 -354h113h24q102 -1 102 -89q0 -53 -42 -91q-44 -38 -102 -38h-24h-160q-89 0 -139 36t-50 100zM299 946q0 57 41 98t97 41q40 0 71 -19q32 -19 51 -51 q19 -31 19 -71q0 -56 -40 -96q-41 -41 -100 -41q-38 0 -69 19q-33 18 -51 51q-19 31 -19 69z" />
<glyph unicode="j" horiz-adv-x="601" d="M-628 -404q0 93 52 179q52 87 130 127q108 57 304 57h208l227 560h-108h-24q-103 3 -103 90q0 55 42 92q42 36 103 36h25h238q57 0 90 -27q32 -27 32 -77q0 -39 -22 -87l-244 -587h109h25q48 0 76 -23q26 -24 26 -66q0 -54 -43 -91q-44 -38 -102 -38h-24h-156l-71 -143 l-29 -59q-140 -276 -397 -276q-101 0 -184 44q-85 44 -132 119q-48 76 -48 170zM-392 -405q0 -49 33 -80q32 -32 81 -32q95 0 169 104q39 53 86 154h-140q-114 0 -171 -36q-58 -37 -58 -110zM432 946q0 38 19 70q20 32 51 51q32 18 67 18q40 0 71 -19q32 -19 51 -51 q19 -31 19 -71q0 -56 -40 -96q-41 -41 -100 -41q-56 0 -97 41t-41 98z" />
<glyph unicode="k" horiz-adv-x="902" d="M27 76q0 31 15 68l11 27l428 1055l11 27q48 112 147 112q45 0 73 -27q29 -27 29 -68q0 -28 -15 -69l-11 -27l-255 -628l224 167q37 28 68 43q27 12 52 12q42 0 70 -28t28 -69q0 -39 -20 -68t-77 -71l-148 -109l154 -243q30 -46 30 -75q0 -45 -38 -81q-39 -36 -87 -36 q-45 0 -74 44l-11 17l-232 347l-112 -277q-28 -73 -66 -105q-37 -33 -93 -33q-43 0 -72 27t-29 68z" />
<glyph unicode="l" horiz-adv-x="560" d="M27 123q0 43 30 110l404 993l10 27q48 112 147 112q44 0 72 -27q29 -27 29 -67q0 -31 -15 -69l-11 -27l-388 -957h105h24q102 -1 102 -89q0 -53 -42 -91q-44 -38 -102 -38h-25h-180q-73 0 -116 34q-44 33 -44 89z" />
<glyph unicode="m" horiz-adv-x="1509" d="M27 77q0 31 15 68l11 27l199 490q22 54 52 79q29 24 74 24q85 0 108 -83q69 59 111 78q41 18 105 18q72 0 119 -26q45 -26 80 -90q53 56 119 86q65 30 132 30q98 0 162 -54q64 -55 64 -139q0 -50 -21 -103l-107 -264h118h25q102 -1 102 -89q0 -54 -43 -91 q-44 -38 -102 -38h-24h-202q-63 0 -106 35q-42 35 -42 88q0 44 27 110l93 229q8 22 8 36q0 32 -18 48q-19 17 -50 17q-51 0 -100 -46q-50 -47 -79 -121l-112 -275q-31 -75 -66 -106q-37 -32 -91 -32q-43 0 -72 27t-29 67q0 31 15 68l11 27l113 279q14 36 14 59q0 22 -19 38 t-49 16q-48 0 -94 -43q-49 -46 -76 -113l-117 -287l-11 -27q-46 -111 -146 -111q-43 0 -72 27t-29 67z" />
<glyph unicode="n" horiz-adv-x="1048" d="M27 74q0 32 15 69l11 27l202 498q39 97 134 97q78 0 109 -69q58 45 104 64q45 18 98 18q95 0 156 -54q62 -54 62 -136q0 -47 -22 -101l-109 -269h120h24q103 -1 103 -89q0 -54 -43 -91q-44 -38 -102 -38h-24h-209q-61 0 -102 37q-42 38 -42 90q0 39 28 105l88 218 q15 36 15 56q0 24 -20 41q-19 16 -51 16q-62 0 -113 -65q-33 -42 -54 -90l-117 -290l-11 -27q-25 -55 -61 -83q-38 -29 -87 -29q-43 0 -72 27q-30 27 -30 68z" />
<glyph unicode="o" horiz-adv-x="848" d="M27 313q0 94 37 178q37 85 100 149q62 63 145 101q81 37 175 37q73 0 136 -23q61 -22 106 -66q45 -43 70 -104q25 -60 25 -133t-26 -154q-27 -78 -74 -144q-47 -65 -107 -104q-33 -20 -62 -30q-36 -12 -72 -16q-45 -5 -109 -5q-90 0 -132 9q-41 7 -78 31q-64 46 -98 118 q-36 72 -36 156zM269 329q0 -113 125 -113q66 0 98 25q38 29 65 88q26 60 26 114q0 53 -32 88q-33 34 -84 34q-49 0 -96 -33q-45 -34 -74 -88q-28 -53 -28 -115z" />
<glyph unicode="p" horiz-adv-x="928" d="M-239 -607q0 33 15 68l11 26l481 1188q38 89 129 89q34 0 57 -14q23 -15 42 -46q71 74 173 74q71 0 123 -36q53 -38 81 -103q28 -66 28 -154q0 -119 -47 -233q-46 -112 -126 -183q-42 -39 -92 -54q-49 -16 -142 -16q-70 0 -106 6q-37 6 -60 22q-24 17 -51 51l-261 -641 q-30 -73 -65 -105t-90 -32q-43 0 -71 27q-29 26 -29 66zM359 281q16 -26 31 -41q14 -15 33 -21q18 -7 44 -7h14q40 0 64 12q22 12 45 41q34 45 57 110q23 66 23 109q0 48 -24 73t-70 25q-61 0 -106 -47l-4 -3l-3 -4q-4 -6 -5 -9q-2 -2 -7 -15q-1 -4 -5 -13l-8 -15l-13 -33z " />
<glyph unicode="q" horiz-adv-x="816" d="M27 263q0 94 38 196q36 98 104 176q60 69 140 106t170 37q137 0 224 -78q86 -78 86 -199q0 -73 -38 -169l-331 -814h111h24q103 -1 103 -90q0 -55 -43 -92q-44 -38 -102 -38h-25h-185q-67 0 -109 36q-43 34 -43 88q0 44 28 110l207 511q-51 -45 -125 -45q-62 0 -118 35 q-54 34 -85 95q-31 59 -31 135zM272 318q0 -47 28 -72q29 -26 77 -26q27 0 61 14q32 14 38 30l69 170q4 10 6 22q5 30 5 34q0 31 -26 51q-26 19 -69 19t-87 -36q-45 -37 -73 -92q-29 -58 -29 -114z" />
<glyph unicode="r" horiz-adv-x="842" d="M20 442q0 23 23 80l113 278q23 56 49 78q26 23 66 23q76 0 92 -69l7 -32q4 -17 11 -24q6 -8 19 -9q12 -3 47 -3h234h25q106 -1 106 -91q0 -33 -21 -68q-23 -36 -49 -47q-24 -10 -96 -12l-11 -10q-69 -66 -109 -123q-49 -70 -49 -110q0 -39 24 -62q25 -23 67 -23h127h24 q102 -1 102 -89q0 -53 -42 -91q-44 -38 -102 -38h-25h-196q-15 0 -76 14q-67 18 -108 83q-42 65 -42 151q0 69 36 138t118 160h-105l-34 -84q-25 -61 -52 -86q-29 -26 -69 -26q-44 0 -73 28q-31 27 -31 64z" />
<glyph unicode="s" horiz-adv-x="732" d="M20 89q0 55 43 92q41 37 102 37h24h117q139 0 139 103q0 33 -26 85l-44 86l-20 -46q-44 -98 -124 -98q-41 0 -73 29q-33 29 -33 63q0 39 28 94l134 270q26 50 54 72q29 23 67 23q39 0 67 -24q28 -25 28 -58q0 -12 -6 -41q-4 -27 -4 -41q0 -59 48 -127l57 -79 q86 -122 86 -228q0 -73 -38 -143q-39 -70 -103 -111q-33 -20 -111 -38q-46 -9 -62 -9h-223h-24q-50 1 -77 25q-26 23 -26 64z" />
<glyph unicode="t" horiz-adv-x="622" d="M34 131q0 38 18 81l19 44l118 290q-127 0 -127 89q0 55 43 92q41 37 102 37h24h46l53 131l11 27q50 111 146 111q30 0 52 -12q23 -12 36 -34t13 -46q0 -43 -25 -97l-37 -80h31h24q103 -1 103 -89q0 -54 -43 -91q-44 -38 -102 -38h-24h-73l-134 -328h112h24 q103 -1 103 -89q0 -54 -43 -91q-44 -38 -102 -38h-24h-178q-75 0 -120 36q-46 34 -46 95z" />
<glyph unicode="u" horiz-adv-x="1048" d="M40 192q0 51 26 114l136 334q30 73 67 107q34 31 90 31q44 0 72 -27q29 -27 29 -67q0 -31 -15 -69l-11 -27l-105 -257l-11 -30q-11 -30 -11 -40q0 -18 16 -31t41 -13q52 0 73 8q65 25 91 86l127 314q32 76 67 107q37 32 92 32q44 0 72 -27q29 -27 29 -67q0 -33 -26 -97 l-144 -355h116h24q102 -1 102 -89q0 -53 -42 -91q-44 -38 -102 -38h-24h-193q-30 0 -57 18q-27 17 -41 47q-56 -65 -136 -65h-162q-20 0 -53 11q-35 11 -55 23q-35 23 -58 68q-24 45 -24 90z" />
<glyph unicode="v" horiz-adv-x="763" d="M82 175q0 20 1 25l36 399q4 67 24 97q19 31 53 50t68 19q41 0 67 -26q25 -26 25 -69q0 -25 -4 -49l-28 -270l232 317l18 26q57 84 132 84q22 0 43 -8q20 -7 33 -21q14 -13 21 -33q8 -22 8 -44q0 -47 -60 -127l-370 -478q-29 -38 -67 -60q-41 -23 -77 -23t-74 21 q-37 20 -57 51q-24 38 -24 119z" />
<glyph unicode="w" horiz-adv-x="1241" d="M82 169q0 17 1 22l28 420l2 25q6 62 45 102t95 40q46 0 70 -26q24 -25 24 -77q0 -5 -2 -37l-28 -280l222 318q31 45 76 75q44 27 89 27q61 0 95 -32q32 -34 32 -94q0 -23 -1 -29l-28 -251l235 305q45 57 74 78q32 21 73 21q31 0 54 -13q25 -14 38 -36q13 -23 13 -53 q0 -47 -43 -99l-19 -24l-375 -472q-33 -42 -74 -68q-40 -27 -72 -27q-71 0 -116 49q-45 48 -45 122q0 20 3 36l33 181l-204 -293q-65 -95 -141 -95q-67 0 -111 53q-43 52 -43 132z" />
<glyph unicode="x" horiz-adv-x="779" d="M20 91q0 29 16 57q18 30 61 74l178 182l-77 179q-19 45 -19 72q0 48 40 85q41 38 89 38q35 0 55 -17q18 -17 38 -66l53 -129l113 127q45 50 75 69q30 18 65 18q30 0 55 -13q25 -14 38 -39t13 -56q0 -33 -17 -62q-17 -31 -63 -74l-171 -169l84 -194l9 -20q10 -24 10 -50 q0 -47 -40 -84q-41 -38 -89 -38q-32 0 -51 16t-40 61l-63 136l-117 -124l-21 -22q-59 -62 -118 -62q-45 0 -75 30q-31 28 -31 75z" />
<glyph unicode="y" horiz-adv-x="933" d="M-287 -404q0 72 30 137q29 65 83 115q52 47 122 74q98 37 284 37h162l30 72q-75 -36 -138 -36q-104 0 -172 56q-67 55 -67 143q0 56 43 161l109 269q32 78 68 108q37 32 92 32q44 0 74 -27q29 -27 29 -67q0 -32 -26 -99l-97 -239q-25 -57 -25 -78t18 -33q17 -12 46 -12 q43 0 91 27q49 26 62 60l134 328l11 27q23 55 61 84t87 29q45 0 73 -27q29 -27 29 -69q0 -34 -15 -69l-11 -27l-248 -613h115h25q47 0 75 -23q27 -24 27 -66q0 -54 -42 -91q-44 -38 -103 -38h-24h-162q-15 -46 -38 -94q-48 -107 -85 -169q-37 -61 -70 -93 q-124 -123 -297 -123q-101 0 -183 45q-84 44 -130 120q-47 77 -47 169zM-45 -405q0 -49 33 -80q32 -32 81 -32q95 0 169 104q37 51 86 154h-140q-114 0 -171 -36q-58 -37 -58 -110z" />
<glyph unicode="z" horiz-adv-x="826" d="M27 116q0 51 68 116l327 314l-112 -4h-18q-3 -1 -10 -1q-105 0 -105 91q0 57 42 94q43 38 105 38h25h312q69 0 103 -30q35 -30 35 -87q0 -61 -63 -123l-317 -306h252h24q102 -1 102 -89q0 -53 -42 -91q-44 -38 -102 -38h-25h-466q-61 0 -98 32q-37 31 -37 84z" />
<glyph unicode="{" d="M68 0v1365h683v-1365h-683zM82 14h655v1337h-655v-1337z" />
<glyph unicode="|" d="M68 0v1365h683v-1365h-683zM82 14h655v1337h-655v-1337z" />
<glyph unicode="}" d="M68 0v1365h683v-1365h-683zM82 14h655v1337h-655v-1337z" />
<glyph unicode="~" d="M68 0v1365h683v-1365h-683zM82 14h655v1337h-655v-1337z" />
<glyph unicode="&#xa1;" horiz-adv-x="628" d="M82 96q0 37 25 103l219 593q32 81 61 117q30 36 67 36q26 0 51 -14q23 -13 36 -36q13 -22 13 -48q0 -22 -11 -64l-188 -683q-16 -59 -55 -93q-37 -34 -89 -34q-53 0 -91 36q-38 35 -38 87zM416 1140q0 57 41 98q40 40 98 40q37 0 70 -18q32 -19 51 -51q18 -33 18 -70 q0 -58 -40 -98q-40 -42 -97 -42q-59 0 -100 41t-41 100z" />
<glyph unicode="&#xa2;" horiz-adv-x="813" d="M164 549q0 82 26 157t74 136q52 64 115 103q64 40 145 60q31 103 126 103q50 0 79 -28q29 -29 29 -76q0 -11 -4 -38q46 -22 77 -76q30 -54 30 -121q0 -71 -36 -118q-38 -47 -96 -47q-93 0 -93 91v20q2 26 2 23q0 24 -20 44q-19 19 -48 19q-43 0 -83 -31q-38 -30 -65 -82 q-25 -49 -25 -105t28 -88q27 -34 71 -34q27 0 54 10l37 15q22 8 38 8q39 0 64 -30q24 -30 24 -78q0 -143 -189 -154q-7 -55 -40 -86q-32 -31 -81 -31q-47 0 -76 28q-30 27 -30 70q0 23 10 53q-73 54 -109 124q-34 67 -34 159z" />
<glyph unicode="&#xa3;" horiz-adv-x="924" d="M0 102q0 31 14 54q15 25 50 56q123 107 165 211q-118 1 -118 91q0 53 44 94q44 39 104 39h25h16l1 21q2 34 3 52q1 13 1 28l1 81q3 97 31 172q28 79 76 130q49 54 116 82q69 29 149 29q74 0 136 -22q64 -23 107 -63q44 -41 68 -98q23 -58 23 -128q0 -105 -48 -176 q-48 -72 -121 -72q-48 0 -80 31q-34 31 -34 74q0 24 11 59l15 45q6 17 6 36q0 37 -24 61t-59 24q-59 0 -99 -55q-20 -29 -27 -56q-8 -30 -8 -81q0 -86 -4 -151l-1 -23h129h25q106 -1 106 -91q0 -55 -44 -94q-43 -39 -105 -39h-25h-136q-41 -115 -125 -205h295h24 q102 -1 102 -89q0 -53 -42 -91q-44 -38 -102 -38h-25h-441q-65 0 -89 2q-17 1 -35 11q-51 26 -51 89z" />
<glyph unicode="&#xa4;" d="M68 0v1365h683v-1365h-683zM82 14h655v1337h-655v-1337z" />
<glyph unicode="&#xa5;" horiz-adv-x="933" d="M107 361q0 55 43 92q44 38 103 38h25h64l21 52l-3 140h-45h-24q-101 2 -101 87q0 54 44 93q44 38 103 38h17h11l-6 162v18q0 61 41 105q40 43 99 43q94 0 94 -119v-25l-1 -269l232 316l18 26q57 84 132 84q32 0 55 -13q24 -14 37 -38q13 -25 13 -55q0 -46 -60 -126 l-85 -110q86 -11 86 -87q0 -54 -44 -92t-103 -38h-24h-83l-155 -192h37h24q101 -2 101 -87q0 -55 -43 -92q-43 -39 -104 -39h-24h-94l-62 -154q-28 -73 -66 -105q-37 -33 -92 -33q-43 0 -72 27q-30 27 -30 68q0 31 15 68l11 27l42 102h-22h-25q-100 1 -100 88z" />
<glyph unicode="&#xa7;" d="M68 0v1365h683v-1365h-683zM82 14h655v1337h-655v-1337z" />
<glyph unicode="&#xa8;" horiz-adv-x="927" d="M137 1032q0 56 40 95q40 38 95 38q58 0 97 -39t39 -96q0 -54 -39 -95q-41 -41 -97 -41t-95 41q-40 40 -40 97zM519 1032q0 56 41 95q41 38 95 38q57 0 96 -39t39 -96q0 -54 -39 -95q-41 -41 -96 -41q-58 0 -97 40q-39 41 -39 98z" />
<glyph unicode="&#xa9;" d="M68 0v1365h683v-1365h-683zM82 14h655v1337h-655v-1337z" />
<glyph unicode="&#xaa;" d="M68 0v1365h683v-1365h-683zM82 14h655v1337h-655v-1337z" />
<glyph unicode="&#xab;" horiz-adv-x="894" d="M136 436q0 38 43 97l84 117q35 47 58 64t53 17q37 0 61 -26q24 -25 24 -65q0 -38 -31 -81l-14 -21l-78 -111l54 -143q16 -41 16 -64q0 -40 -32 -74q-33 -34 -73 -34q-50 0 -71 57l-7 19l-55 143l-19 48q-13 33 -13 57zM437 436q0 39 42 97l84 117q35 47 58 64t54 17 q36 0 60 -26q24 -25 24 -65q0 -36 -30 -81l-15 -21l-77 -111l53 -143q16 -41 16 -64q0 -44 -31 -75q-31 -33 -73 -33q-51 0 -72 57l-7 19l-55 143l-19 48q-12 36 -12 57z" />
<glyph unicode="&#xac;" d="M68 0v1365h683v-1365h-683zM82 14h655v1337h-655v-1337z" />
<glyph unicode="&#xad;" horiz-adv-x="887" d="M137 427q0 37 27 61q26 24 67 24h19h387h19q44 0 69 -22q26 -23 26 -63q0 -39 -26 -62q-27 -24 -69 -24h-19h-387h-19q-41 1 -68 25q-26 23 -26 61z" />
<glyph unicode="&#xae;" d="M68 0v1365h683v-1365h-683zM82 14h655v1337h-655v-1337z" />
<glyph unicode="&#xaf;" d="M68 0v1365h683v-1365h-683zM82 14h655v1337h-655v-1337z" />
<glyph unicode="&#xb0;" d="M68 0v1365h683v-1365h-683zM82 14h655v1337h-655v-1337z" />
<glyph unicode="&#xb1;" d="M68 0v1365h683v-1365h-683zM82 14h655v1337h-655v-1337z" />
<glyph unicode="&#xb2;" horiz-adv-x="910" d="M61 114q0 32 10 53q10 22 40 53l560 576q48 50 48 102q0 50 -37 84q-38 35 -89 35q-54 0 -92 -36t-38 -87q0 -34 15 -66l22 -43q12 -22 12 -53q0 -50 -32 -82t-82 -32q-78 0 -130 73q-53 74 -53 179q0 104 52 189q53 86 143 135q90 48 198 48q79 0 146 -24 q68 -26 117 -70q50 -46 75 -108q26 -63 26 -138q0 -67 -28 -132q-28 -66 -78 -116l-429 -434h297h24q103 -1 103 -90q0 -55 -43 -92q-44 -38 -102 -38h-25h-496q-62 0 -97 31q-37 31 -37 83z" />
<glyph unicode="&#xb3;" horiz-adv-x="926" d="M55 303q0 102 52 175q51 72 122 72q41 0 73 -29q31 -28 31 -69q0 -22 -9 -54q-20 -68 -20 -90q0 -44 34 -75q32 -31 81 -31q58 0 110 37q51 37 82 100q31 62 31 131q0 116 -122 157q-85 25 -85 94q0 44 32 81l21 22l167 185h-227h-25q-102 3 -102 90q0 56 42 93 q40 37 103 37h24h386q84 0 121 -28q38 -29 38 -92q0 -58 -39 -100l-240 -259q155 -104 155 -281q0 -161 -97 -300q-65 -92 -159 -140q-94 -49 -216 -49q-106 0 -190 41q-83 41 -128 114q-46 73 -46 168z" />
<glyph unicode="&#xb4;" horiz-adv-x="569" d="M137 957q0 11 3 18l9 20l38 103q13 36 34 50q20 14 56 14h59q52 0 74 -16t22 -56q0 -37 -32 -63l-125 -99q-43 -34 -74 -34q-24 0 -44 20t-20 43z" />
<glyph unicode="&#xb5;" d="M68 0v1365h683v-1365h-683zM82 14h655v1337h-655v-1337z" />
<glyph unicode="&#xb6;" d="M68 0v1365h683v-1365h-683zM82 14h655v1337h-655v-1337z" />
<glyph unicode="&#xb7;" horiz-adv-x="511" d="M177 603q0 56 41 99q41 41 96 41q40 0 72 -19t51 -51q19 -31 19 -71q0 -56 -41 -97t-99 -41q-38 0 -69 19q-33 18 -51 51q-19 31 -19 69z" />
<glyph unicode="&#x2219;" horiz-adv-x="511" d="M177 603q0 56 41 99q41 41 96 41q40 0 72 -19t51 -51q19 -31 19 -71q0 -56 -41 -97t-99 -41q-38 0 -69 19q-33 18 -51 51q-19 31 -19 69z" />
<glyph unicode="&#xb8;" d="M68 0v1365h683v-1365h-683zM82 14h655v1337h-655v-1337z" />
<glyph unicode="&#xb9;" horiz-adv-x="588" d="M48 81q0 35 15 69l10 27l337 829h-69h-24q-50 2 -76 25q-28 22 -28 66q0 57 43 94q43 38 104 38h24h200q53 0 87 -26q33 -25 33 -70q0 -30 -16 -66l-382 -942q-31 -75 -66 -106q-37 -32 -91 -32q-43 0 -72 27t-29 67z" />
<glyph unicode="&#xba;" d="M68 0v1365h683v-1365h-683zM82 14h655v1337h-655v-1337z" />
<glyph unicode="&#xbb;" horiz-adv-x="894" d="M134 202q0 38 31 81l14 21l78 111l-54 143q-15 44 -15 64q0 40 32 75q32 33 72 33q51 0 72 -57l7 -19l54 -143l19 -48q13 -33 13 -57q0 -38 -42 -97l-85 -117q-34 -46 -57 -63q-25 -17 -54 -17q-34 0 -60 26q-25 25 -25 64zM435 202q0 38 30 81l15 21l77 111l-53 143 q-16 41 -16 64q0 40 32 75q32 33 72 33q51 0 72 -57l7 -19l54 -143l19 -48q13 -33 13 -57q0 -38 -42 -97l-84 -117q-33 -46 -57 -63q-26 -17 -55 -17q-36 0 -60 26t-24 64z" />
<glyph unicode="&#xbf;" horiz-adv-x="1010" d="M123 290q0 94 42 166t149 158q29 24 48 39t44 36q37 31 64 60q27 27 34 46l40 88q29 65 95 65q48 0 79 -31t31 -76q0 -48 -24 -101q-26 -56 -76 -115q-55 -64 -131 -133q-91 -82 -106 -102q-36 -42 -36 -84q0 -45 35 -77t84 -32q35 0 67 17q30 16 51 46q19 28 19 60 q0 22 -18 80q-11 38 -11 61q0 43 31 74t74 31q70 0 118 -63q47 -65 47 -159q0 -105 -51 -191q-51 -85 -141 -132q-90 -48 -204 -48q-74 0 -140 25q-67 24 -114 66q-47 41 -73 100q-27 59 -27 126zM611 1137q0 58 42 98q40 40 98 40q38 0 69 -18q32 -19 51 -51q18 -33 18 -70 q0 -58 -40 -98q-40 -42 -97 -42q-59 0 -100 41t-41 100z" />
<glyph unicode="&#xc0;" d="M68 0v1365h683v-1365h-683zM82 14h655v1337h-655v-1337z" />
<glyph unicode="&#xc1;" d="M68 0v1365h683v-1365h-683zM82 14h655v1337h-655v-1337z" />
<glyph unicode="&#xc2;" d="M68 0v1365h683v-1365h-683zM82 14h655v1337h-655v-1337z" />
<glyph unicode="&#xc3;" d="M68 0v1365h683v-1365h-683zM82 14h655v1337h-655v-1337z" />
<glyph unicode="&#xc4;" d="M68 0v1365h683v-1365h-683zM82 14h655v1337h-655v-1337z" />
<glyph unicode="&#xc5;" d="M68 0v1365h683v-1365h-683zM82 14h655v1337h-655v-1337z" />
<glyph unicode="&#xc6;" d="M68 0v1365h683v-1365h-683zM82 14h655v1337h-655v-1337z" />
<glyph unicode="&#xc7;" horiz-adv-x="1216" d="M68 780q0 57 47 99t111 42h27h145q92 152 242 289q194 176 417 176q77 0 141 -24q64 -26 108 -67q45 -44 70 -102q25 -59 25 -130q0 -74 -33 -145q-35 -72 -93 -121q-75 -62 -166 -84q-135 -30 -299 -30h-261q-65 -117 -101 -231q-34 -109 -34 -214q0 -97 29 -157 q28 -58 94 -87q63 -28 165 -28h556h26q112 -3 112 -97q0 -38 -20 -70q-21 -33 -58 -52q-38 -20 -80 -20h-27h-351l-40 -81q66 -9 103 -44q36 -36 36 -93q0 -68 -54 -114q-56 -47 -135 -47q-67 0 -113 31q-48 31 -48 72q0 22 15 39q15 16 38 16q18 0 30 -9l19 -14 q25 -19 53 -19q25 0 41 13q15 12 15 31q0 22 -18 39q-18 16 -47 18l-37 1q-32 2 -32 26q0 17 4 25l48 110h-107h-34q-132 0 -235 61q-104 61 -163 171q-58 109 -58 244q0 108 27 217q27 110 94 263h-55h-27q-112 1 -112 97zM698 921h194q144 0 200 44q48 38 48 91 q0 41 -32 68q-32 26 -82 26q-92 0 -193 -84q-79 -66 -135 -145z" />
<glyph unicode="&#xc8;" d="M68 0v1365h683v-1365h-683zM82 14h655v1337h-655v-1337z" />
<glyph unicode="&#xc9;" d="M68 0v1365h683v-1365h-683zM82 14h655v1337h-655v-1337z" />
<glyph unicode="&#xca;" d="M68 0v1365h683v-1365h-683zM82 14h655v1337h-655v-1337z" />
<glyph unicode="&#xcb;" d="M68 0v1365h683v-1365h-683zM82 14h655v1337h-655v-1337z" />
<glyph unicode="&#xcc;" d="M68 0v1365h683v-1365h-683zM82 14h655v1337h-655v-1337z" />
<glyph unicode="&#xcd;" d="M68 0v1365h683v-1365h-683zM82 14h655v1337h-655v-1337z" />
<glyph unicode="&#xce;" d="M68 0v1365h683v-1365h-683zM82 14h655v1337h-655v-1337z" />
<glyph unicode="&#xcf;" d="M68 0v1365h683v-1365h-683zM82 14h655v1337h-655v-1337z" />
<glyph unicode="&#xd1;" d="M68 0v1365h683v-1365h-683zM82 14h655v1337h-655v-1337z" />
<glyph unicode="&#xd2;" d="M68 0v1365h683v-1365h-683zM82 14h655v1337h-655v-1337z" />
<glyph unicode="&#xd3;" d="M68 0v1365h683v-1365h-683zM82 14h655v1337h-655v-1337z" />
<glyph unicode="&#xd4;" d="M68 0v1365h683v-1365h-683zM82 14h655v1337h-655v-1337z" />
<glyph unicode="&#xd5;" d="M68 0v1365h683v-1365h-683zM82 14h655v1337h-655v-1337z" />
<glyph unicode="&#xd6;" d="M68 0v1365h683v-1365h-683zM82 14h655v1337h-655v-1337z" />
<glyph unicode="&#xd7;" horiz-adv-x="0" />
<glyph unicode="&#xfd;" horiz-adv-x="0" />
<glyph unicode="&#xd8;" d="M68 0v1365h683v-1365h-683zM82 14h655v1337h-655v-1337z" />
<glyph unicode="&#xd9;" d="M68 0v1365h683v-1365h-683zM82 14h655v1337h-655v-1337z" />
<glyph unicode="&#xda;" d="M68 0v1365h683v-1365h-683zM82 14h655v1337h-655v-1337z" />
<glyph unicode="&#xdb;" d="M68 0v1365h683v-1365h-683zM82 14h655v1337h-655v-1337z" />
<glyph unicode="&#xdc;" d="M68 0v1365h683v-1365h-683zM82 14h655v1337h-655v-1337z" />
<glyph unicode="&#xdd;" horiz-adv-x="1801" d="M548 1572q0 11 3 18l9 20l38 103q13 36 34 50q20 14 56 14h59q52 0 74 -16t22 -56q0 -37 -32 -63l-125 -99q-43 -34 -74 -34q-24 0 -44 20t-20 43zM177 838q0 146 76 273q75 126 204 201q128 75 274 75q80 0 148 -25t121 -72q51 -46 79 -109q28 -62 28 -135 q0 -78 -25 -149q-6 -18 -39 -107q-36 -94 -36 -142q0 -47 35 -79q35 -33 86 -33q87 0 149 86q22 32 38 63q18 38 35 80l193 476q28 68 69 97q41 27 114 27h236h27q55 0 83 -25q29 -26 29 -72q0 -58 -47 -100q-46 -42 -111 -42h-27h-145l-361 -887h136h27q55 0 83 -25 q29 -26 29 -72q0 -60 -46 -100q-46 -42 -113 -42h-26h-187l-74 -184q-56 -143 -91 -209q-36 -68 -89 -138q-162 -209 -401 -209q-90 0 -171 33q-79 32 -139 92q-59 59 -92 139q-33 79 -33 169q0 99 38 190q37 88 112 161q73 72 176 120q89 41 180 57q88 14 248 16l159 2 l34 83q-54 -26 -119 -26q-140 0 -226 79q-42 39 -71 103t-29 125q0 57 33 159q26 84 56 158q23 60 23 91q0 53 -42 92q-44 38 -100 38q-66 0 -125 -41q-60 -43 -95 -109q-37 -67 -37 -139q0 -96 98 -137q59 -22 79 -42q18 -19 18 -60q0 -57 -43 -94q-43 -39 -104 -39 q-82 0 -154 48q-73 49 -113 130q-42 83 -42 180zM492 -302q0 -50 24 -93q23 -42 65 -67q41 -24 89 -24q57 0 113 38q58 39 97 100q47 74 101 205l58 143q-129 -2 -196 -9q-67 -9 -126 -30q-107 -38 -166 -107q-59 -70 -59 -156z" />
<glyph unicode="&#xdf;" horiz-adv-x="1011" d="M7 69q0 31 14 68l11 27l381 936q110 272 369 272q100 0 179 -39q78 -39 122 -110t44 -160q0 -79 -29 -148q-31 -69 -84 -118q-55 -50 -133 -79q53 -47 77 -100q23 -55 23 -129q0 -102 -43 -201q-44 -102 -112 -167q-46 -42 -97 -71q-51 -30 -112 -47q-60 -17 -112 -17 q-78 0 -131 40q-55 39 -55 95q0 43 31 71q32 29 75 29q24 0 56 -4q46 -2 42 -2q57 0 107 41t81 107q30 66 30 141q0 54 -13 86q-13 31 -47 54l-37 26q-45 32 -45 76q0 82 92 102q64 14 86 24q20 8 47 32q30 29 48 69q18 39 18 79q0 47 -28 75t-74 28q-102 0 -157 -136 l-368 -907l-11 -26q-46 -111 -145 -111q-42 0 -71 27t-29 67z" />
<glyph unicode="&#xe0;" horiz-adv-x="957" d="M27 286q0 123 62 238q62 114 161 184q100 70 210 70q128 0 186 -88q50 74 130 74q44 0 74 -27t30 -66q0 -31 -26 -97l-145 -356h110h24q102 -1 102 -89q0 -53 -42 -91q-44 -38 -102 -38h-25h-128q-46 0 -72 16q-28 17 -44 51l-18 -15q-32 -27 -60 -40q-28 -12 -68 -12 h-119q-107 0 -173 80q-67 79 -67 206zM263 312q0 -47 22 -72q21 -27 61 -27h39q22 0 53 19q29 18 37 36l75 185l7 15q8 21 8 37q0 30 -26 51q-27 21 -64 21t-75 -23q-38 -24 -69 -64q-33 -42 -50 -85q-18 -46 -18 -93zM312 1088q0 33 22 52q23 20 53 20h74q42 0 61 -12 q21 -15 34 -46l41 -95q12 -28 12 -54q0 -24 -18 -41q-19 -18 -43 -18q-29 0 -63 25l-119 88q-32 23 -43 40t-11 41z" />
<glyph unicode="&#xe1;" horiz-adv-x="957" d="M27 286q0 123 62 238q62 114 161 184q100 70 210 70q128 0 186 -88q50 74 130 74q44 0 74 -27t30 -66q0 -31 -26 -97l-145 -356h110h24q102 -1 102 -89q0 -53 -42 -91q-44 -38 -102 -38h-25h-128q-46 0 -72 16q-28 17 -44 51l-18 -15q-32 -27 -60 -40q-28 -12 -68 -12 h-119q-107 0 -173 80q-67 79 -67 206zM263 312q0 -47 22 -72q21 -27 61 -27h39q22 0 53 19q29 18 37 36l75 185l7 15q8 21 8 37q0 30 -26 51q-27 21 -64 21t-75 -23q-38 -24 -69 -64q-33 -42 -50 -85q-18 -46 -18 -93zM503 952q0 11 3 18l9 20l38 103q13 36 34 50 q20 14 56 14h59q52 0 74 -16t22 -56q0 -37 -32 -63l-125 -99q-43 -34 -74 -34q-24 0 -44 20t-20 43z" />
<glyph unicode="&#xe2;" horiz-adv-x="957" d="M27 286q0 123 62 238q62 114 161 184q100 70 210 70q128 0 186 -88q50 74 130 74q44 0 74 -27t30 -66q0 -31 -26 -97l-145 -356h110h24q102 -1 102 -89q0 -53 -42 -91q-44 -38 -102 -38h-25h-128q-46 0 -72 16q-28 17 -44 51l-18 -15q-32 -27 -60 -40q-28 -12 -68 -12 h-119q-107 0 -173 80q-67 79 -67 206zM263 312q0 -47 22 -72q21 -27 61 -27h39q22 0 53 19q29 18 37 36l75 185l7 15q8 21 8 37q0 30 -26 51q-27 21 -64 21t-75 -23q-38 -24 -69 -64q-33 -42 -50 -85q-18 -46 -18 -93zM410 976q0 32 20 58q19 25 65 48l117 62q61 32 99 32 q25 0 53 -24q4 -2 8 -5t5 -5l7 -7l81 -67q51 -40 51 -91q0 -35 -24 -58q-25 -24 -62 -24q-15 0 -18 1q-6 2 -14 6q-12 6 -18 11q-2 2 -10 8.5t-19 15.5l-59 53l-119 -66q-52 -30 -86 -30q-30 0 -53 26q-24 26 -24 56z" />
<glyph unicode="&#xe3;" horiz-adv-x="957" d="M27 286q0 123 62 238q62 114 161 184q100 70 210 70q128 0 186 -88q50 74 130 74q44 0 74 -27t30 -66q0 -31 -26 -97l-145 -356h110h24q102 -1 102 -89q0 -53 -42 -91q-44 -38 -102 -38h-25h-128q-46 0 -72 16q-28 17 -44 51l-18 -15q-32 -27 -60 -40q-28 -12 -68 -12 h-119q-107 0 -173 80q-67 79 -67 206zM263 312q0 -47 22 -72q21 -27 61 -27h39q22 0 53 19q29 18 37 36l75 185l7 15q8 21 8 37q0 30 -26 51q-27 21 -64 21t-75 -23q-38 -24 -69 -64q-33 -42 -50 -85q-18 -46 -18 -93zM380 989q0 32 33 75l39 50q47 57 111 57q36 0 85 -34 l32 -21q14 -9 23 -9q13 0 25 13l24 24q21 21 50 21q38 0 66 -23q26 -24 26 -58q0 -38 -29 -72l-57 -65q-39 -45 -93 -45q-48 0 -99 42q-28 24 -38 24q-14 0 -33 -19q-40 -40 -86 -40q-33 0 -56 23t-23 57z" />
<glyph unicode="&#xe4;" horiz-adv-x="957" d="M27 286q0 123 62 238q62 114 161 184q100 70 210 70q128 0 186 -88q50 74 130 74q44 0 74 -27t30 -66q0 -31 -26 -97l-145 -356h110h24q102 -1 102 -89q0 -53 -42 -91q-44 -38 -102 -38h-25h-128q-46 0 -72 16q-28 17 -44 51l-18 -15q-32 -27 -60 -40q-28 -12 -68 -12 h-119q-107 0 -173 80q-67 79 -67 206zM263 312q0 -47 22 -72q21 -27 61 -27h39q22 0 53 19q29 18 37 36l75 185l7 15q8 21 8 37q0 30 -26 51q-27 21 -64 21t-75 -23q-38 -24 -69 -64q-33 -42 -50 -85q-18 -46 -18 -93zM298 1032q0 56 40 95q40 38 95 38q58 0 97 -39t39 -96 q0 -54 -39 -95q-41 -41 -97 -41t-95 41q-40 40 -40 97zM680 1032q0 56 41 95q41 38 95 38q57 0 96 -39t39 -96q0 -54 -39 -95q-41 -41 -96 -41q-58 0 -97 40q-39 41 -39 98z" />
<glyph unicode="&#xe5;" horiz-adv-x="957" d="M27 286q0 123 62 238q62 114 161 184q100 70 210 70q128 0 186 -88q50 74 130 74q44 0 74 -27t30 -66q0 -31 -26 -97l-145 -356h110h24q102 -1 102 -89q0 -53 -42 -91q-44 -38 -102 -38h-25h-128q-46 0 -72 16q-28 17 -44 51l-18 -15q-32 -27 -60 -40q-28 -12 -68 -12 h-119q-107 0 -173 80q-67 79 -67 206zM263 312q0 -47 22 -72q21 -27 61 -27h39q22 0 53 19q29 18 37 36l75 185l7 15q8 21 8 37q0 30 -26 51q-27 21 -64 21t-75 -23q-38 -24 -69 -64q-33 -42 -50 -85q-18 -46 -18 -93zM429 1043q0 49 25 90q24 41 66 65t90 24q49 0 91 -24 q42 -25 66 -66q24 -42 24 -91t-24 -90q-25 -42 -66 -66q-41 -25 -91 -25q-51 0 -91 25q-42 24 -66 67q-24 42 -24 91zM543 1042q0 -28 20 -48t47 -20q28 0 47 19q20 20 20 48t-19 47t-48 19q-28 0 -47 -19q-20 -20 -20 -46z" />
<glyph unicode="&#xe6;" horiz-adv-x="1280" d="M27 231q0 73 39 134q39 59 105 88q57 26 167 26h187q-5 43 -28 62q-25 19 -76 19h-118h-23q-96 2 -96 84q0 52 40 86q38 34 95 34h23h144q23 0 66 -8q37 -8 60 -17q34 -15 77 -58q61 52 121 75q57 22 134 22q84 0 147 -31t99 -90q35 -59 35 -130q0 -107 -72 -169 q-73 -62 -198 -62h-220q5 -41 30 -59q25 -19 76 -19h299h24q102 -1 102 -89q0 -54 -43 -91q-44 -38 -102 -38h-24h-314q-19 0 -64 9q-41 8 -64 17q-21 8 -28 14q-9 5 -46 36q-115 -94 -269 -94q-82 0 -147 33q-64 31 -101 88q-37 55 -37 128zM261 241q1 -25 23 -39 q21 -15 58 -15q80 0 153 66q-1 9 -1 24q0 13 -1 19h-122q-110 0 -110 -55zM787 479h119q90 0 90 43q0 23 -18 38q-20 14 -49 14q-95 0 -142 -95z" />
<glyph unicode="&#xe7;" horiz-adv-x="782" d="M27 318q0 123 60 229q58 106 159 169q99 63 214 63q119 0 192 -67t73 -174q0 -72 -37 -118q-37 -48 -96 -48q-39 0 -65 24t-26 60l1 47q0 31 -19 49t-48 18q-42 0 -82 -31t-66 -82q-25 -50 -25 -107q0 -61 32 -93q22 -24 54 -31q34 -8 104 -8h189h25q102 -1 102 -88 q0 -53 -42 -91q-43 -39 -103 -39h-24h-125l-38 -77q65 -8 98 -41q34 -34 34 -89q0 -65 -52 -108q-53 -44 -128 -44q-38 0 -74 14q-36 13 -57 36q-21 22 -21 47q0 21 15 38q14 15 36 15q17 0 27 -9l18 -14q26 -18 51 -18q23 0 38 12t15 31q0 23 -17 38q-18 15 -45 15l-35 2 q-31 1 -31 24q0 12 5 24l45 104h-48q-82 0 -146 40q-65 41 -101 114q-36 74 -36 164z" />
<glyph unicode="&#xe8;" horiz-adv-x="816" d="M27 309q0 127 61 234q60 107 163 171q101 64 221 64q86 0 149 -31q66 -32 101 -89q36 -58 36 -131q0 -70 -36 -126q-37 -57 -97 -83q-37 -15 -64 -19q-31 -6 -95 -6h-200q2 -75 113 -75h297h24q102 -1 102 -89q0 -53 -42 -91q-44 -38 -102 -38h-25h-283q-77 0 -121 12 q-45 12 -85 40q-57 42 -87 108q-30 65 -30 149zM314 475h111q103 0 103 45q0 23 -19 39q-19 15 -48 15q-94 0 -147 -99zM293 1099q0 33 22 52q23 20 53 20h74q42 0 61 -12q21 -15 34 -46l41 -95q12 -28 12 -54q0 -24 -18 -41q-19 -18 -43 -18q-29 0 -63 25l-119 88 q-32 23 -43 40t-11 41z" />
<glyph unicode="&#xe9;" horiz-adv-x="816" d="M27 309q0 127 61 234q60 107 163 171q101 64 221 64q86 0 149 -31q66 -32 101 -89q36 -58 36 -131q0 -70 -36 -126q-37 -57 -97 -83q-37 -15 -64 -19q-31 -6 -95 -6h-200q2 -75 113 -75h297h24q102 -1 102 -89q0 -53 -42 -91q-44 -38 -102 -38h-25h-283q-77 0 -121 12 q-45 12 -85 40q-57 42 -87 108q-30 65 -30 149zM314 475h111q103 0 103 45q0 23 -19 39q-19 15 -48 15q-94 0 -147 -99zM465 957q0 11 3 18l9 20l38 103q13 36 34 50q20 14 56 14h59q52 0 74 -16t22 -56q0 -37 -32 -63l-125 -99q-43 -34 -74 -34q-24 0 -44 20t-20 43z" />
<glyph unicode="&#xea;" horiz-adv-x="816" d="M27 309q0 127 61 234q60 107 163 171q101 64 221 64q86 0 149 -31q66 -32 101 -89q36 -58 36 -131q0 -70 -36 -126q-37 -57 -97 -83q-37 -15 -64 -19q-31 -6 -95 -6h-200q2 -75 113 -75h297h24q102 -1 102 -89q0 -53 -42 -91q-44 -38 -102 -38h-25h-283q-77 0 -121 12 q-45 12 -85 40q-57 42 -87 108q-30 65 -30 149zM314 475h111q103 0 103 45q0 23 -19 39q-19 15 -48 15q-94 0 -147 -99zM293 976q0 32 20 58q19 25 65 48l117 62q61 32 99 32q25 0 53 -24q4 -2 8 -5t5 -5l7 -7l81 -67q51 -40 51 -91q0 -35 -24 -58q-25 -24 -62 -24 q-15 0 -18 1q-6 2 -14 6q-12 6 -18 11q-2 2 -10 8.5t-19 15.5l-59 53l-119 -66q-52 -30 -86 -30q-30 0 -53 26q-24 26 -24 56z" />
<glyph unicode="&#xeb;" horiz-adv-x="816" d="M27 309q0 127 61 234q60 107 163 171q101 64 221 64q86 0 149 -31q66 -32 101 -89q36 -58 36 -131q0 -70 -36 -126q-37 -57 -97 -83q-37 -15 -64 -19q-31 -6 -95 -6h-200q2 -75 113 -75h297h24q102 -1 102 -89q0 -53 -42 -91q-44 -38 -102 -38h-25h-283q-77 0 -121 12 q-45 12 -85 40q-57 42 -87 108q-30 65 -30 149zM314 475h111q103 0 103 45q0 23 -19 39q-19 15 -48 15q-94 0 -147 -99zM230 1032q0 56 40 95q40 38 95 38q58 0 97 -39t39 -96q0 -54 -39 -95q-41 -41 -97 -41t-95 41q-40 40 -40 97zM612 1032q0 56 41 95q41 38 95 38 q57 0 96 -39t39 -96q0 -54 -39 -95q-41 -41 -96 -41q-58 0 -97 40q-39 41 -39 98z" />
<glyph unicode="&#xec;" horiz-adv-x="557" d="M29 136q0 30 21 82l165 406l11 27q48 113 148 113q45 0 73 -27q29 -27 29 -69q0 -32 -14 -69l-12 -27l-143 -354h113h24q102 -1 102 -89q0 -53 -42 -91q-44 -38 -102 -38h-24h-160q-89 0 -139 36t-50 100zM231 1091q0 33 22 52q23 20 53 20h74q42 0 61 -12q21 -15 34 -46 l41 -95q12 -28 12 -54q0 -24 -18 -41q-19 -18 -43 -18q-29 0 -63 25l-119 88q-32 23 -43 40t-11 41z" />
<glyph unicode="&#xed;" horiz-adv-x="557" d="M29 136q0 30 21 82l165 406l11 27q48 113 148 113q45 0 73 -27q29 -27 29 -69q0 -32 -14 -69l-12 -27l-143 -354h113h24q102 -1 102 -89q0 -53 -42 -91q-44 -38 -102 -38h-24h-160q-89 0 -139 36t-50 100zM360 938q0 11 3 18l9 20l38 103q13 36 34 50q20 14 56 14h59 q52 0 74 -16t22 -56q0 -37 -32 -63l-125 -99q-43 -34 -74 -34q-24 0 -44 20t-20 43z" />
<glyph unicode="&#xee;" horiz-adv-x="557" d="M29 136q0 30 21 82l165 406l11 27q48 113 148 113q45 0 73 -27q29 -27 29 -69q0 -32 -14 -69l-12 -27l-143 -354h113h24q102 -1 102 -89q0 -53 -42 -91q-44 -38 -102 -38h-24h-160q-89 0 -139 36t-50 100zM197 976q0 32 20 58q19 25 65 48l117 62q61 32 99 32 q25 0 53 -24q4 -2 8 -5t5 -5l7 -7l81 -67q51 -40 51 -91q0 -35 -24 -58q-25 -24 -62 -24q-15 0 -18 1q-6 2 -14 6q-12 6 -18 11q-2 2 -10 8.5t-19 15.5l-59 53l-119 -66q-52 -30 -86 -30q-30 0 -53 26q-24 26 -24 56z" />
<glyph unicode="&#xef;" horiz-adv-x="557" d="M29 136q0 30 21 82l165 406l11 27q48 113 148 113q45 0 73 -27q29 -27 29 -69q0 -32 -14 -69l-12 -27l-143 -354h113h24q102 -1 102 -89q0 -53 -42 -91q-44 -38 -102 -38h-24h-160q-89 0 -139 36t-50 100zM139 1016q0 56 40 95q40 38 95 38q58 0 97 -39t39 -96 q0 -54 -39 -95q-41 -41 -97 -41t-95 41q-40 40 -40 97zM521 1016q0 56 41 95q41 38 95 38q57 0 96 -39t39 -96q0 -54 -39 -95q-41 -41 -96 -41q-58 0 -97 40q-39 41 -39 98z" />
<glyph unicode="&#xf1;" horiz-adv-x="1048" d="M27 74q0 32 15 69l11 27l202 498q39 97 134 97q78 0 109 -69q58 45 104 64q45 18 98 18q95 0 156 -54q62 -54 62 -136q0 -47 -22 -101l-109 -269h120h24q103 -1 103 -89q0 -54 -43 -91q-44 -38 -102 -38h-24h-209q-61 0 -102 37q-42 38 -42 90q0 39 28 105l88 218 q15 36 15 56q0 24 -20 41q-19 16 -51 16q-62 0 -113 -65q-33 -42 -54 -90l-117 -290l-11 -27q-25 -55 -61 -83q-38 -29 -87 -29q-43 0 -72 27q-30 27 -30 68zM476 981q0 32 33 75l39 50q47 57 111 57q36 0 85 -34l32 -21q14 -9 23 -9q13 0 25 13l24 24q21 21 50 21 q38 0 66 -23q26 -24 26 -58q0 -38 -29 -72l-57 -65q-39 -45 -93 -45q-48 0 -99 42q-28 24 -38 24q-14 0 -33 -19q-40 -40 -86 -40q-33 0 -56 23t-23 57z" />
<glyph unicode="&#xf2;" horiz-adv-x="848" d="M27 313q0 94 37 178q37 85 100 149q62 63 145 101q81 37 175 37q73 0 136 -23q61 -22 106 -66q45 -43 70 -104q25 -60 25 -133t-26 -154q-27 -78 -74 -144q-47 -65 -107 -104q-33 -20 -62 -30q-36 -12 -72 -16q-45 -5 -109 -5q-90 0 -132 9q-41 7 -78 31q-64 46 -98 118 q-36 72 -36 156zM269 329q0 -113 125 -113q66 0 98 25q38 29 65 88q26 60 26 114q0 53 -32 88q-33 34 -84 34q-49 0 -96 -33q-45 -34 -74 -88q-28 -53 -28 -115zM298 1093q0 33 22 52q23 20 53 20h74q42 0 61 -12q21 -15 34 -46l41 -95q12 -28 12 -54q0 -24 -18 -41 q-19 -18 -43 -18q-29 0 -63 25l-119 88q-32 23 -43 40t-11 41z" />
<glyph unicode="&#xf3;" horiz-adv-x="848" d="M27 313q0 94 37 178q37 85 100 149q62 63 145 101q81 37 175 37q73 0 136 -23q61 -22 106 -66q45 -43 70 -104q25 -60 25 -133t-26 -154q-27 -78 -74 -144q-47 -65 -107 -104q-33 -20 -62 -30q-36 -12 -72 -16q-45 -5 -109 -5q-90 0 -132 9q-41 7 -78 31q-64 46 -98 118 q-36 72 -36 156zM269 329q0 -113 125 -113q66 0 98 25q38 29 65 88q26 60 26 114q0 53 -32 88q-33 34 -84 34q-49 0 -96 -33q-45 -34 -74 -88q-28 -53 -28 -115zM473 952q0 11 3 18l9 20l38 103q13 36 34 50q20 14 56 14h59q52 0 74 -16t22 -56q0 -37 -32 -63l-125 -99 q-43 -34 -74 -34q-24 0 -44 20t-20 43z" />
<glyph unicode="&#xf4;" horiz-adv-x="848" d="M27 313q0 94 37 178q37 85 100 149q62 63 145 101q81 37 175 37q73 0 136 -23q61 -22 106 -66q45 -43 70 -104q25 -60 25 -133t-26 -154q-27 -78 -74 -144q-47 -65 -107 -104q-33 -20 -62 -30q-36 -12 -72 -16q-45 -5 -109 -5q-90 0 -132 9q-41 7 -78 31q-64 46 -98 118 q-36 72 -36 156zM269 329q0 -113 125 -113q66 0 98 25q38 29 65 88q26 60 26 114q0 53 -32 88q-33 34 -84 34q-49 0 -96 -33q-45 -34 -74 -88q-28 -53 -28 -115zM306 976q0 32 20 58q19 25 65 48l117 62q61 32 99 32q25 0 53 -24q4 -2 8 -5t5 -5l7 -7l81 -67q51 -40 51 -91 q0 -35 -24 -58q-25 -24 -62 -24q-15 0 -18 1q-6 2 -14 6q-12 6 -18 11q-2 2 -10 8.5t-19 15.5l-59 53l-119 -66q-52 -30 -86 -30q-30 0 -53 26q-24 26 -24 56z" />
<glyph unicode="&#xf5;" horiz-adv-x="848" d="M27 313q0 94 37 178q37 85 100 149q62 63 145 101q81 37 175 37q73 0 136 -23q61 -22 106 -66q45 -43 70 -104q25 -60 25 -133t-26 -154q-27 -78 -74 -144q-47 -65 -107 -104q-33 -20 -62 -30q-36 -12 -72 -16q-45 -5 -109 -5q-90 0 -132 9q-41 7 -78 31q-64 46 -98 118 q-36 72 -36 156zM269 329q0 -113 125 -113q66 0 98 25q38 29 65 88q26 60 26 114q0 53 -32 88q-33 34 -84 34q-49 0 -96 -33q-45 -34 -74 -88q-28 -53 -28 -115zM312 978q0 32 33 75l39 50q47 57 111 57q36 0 85 -34l32 -21q14 -9 23 -9q13 0 25 13l24 24q21 21 50 21 q38 0 66 -23q26 -24 26 -58q0 -38 -29 -72l-57 -65q-39 -45 -93 -45q-48 0 -99 42q-28 24 -38 24q-14 0 -33 -19q-40 -40 -86 -40q-33 0 -56 23t-23 57z" />
<glyph unicode="&#xf6;" horiz-adv-x="848" d="M27 313q0 94 37 178q37 85 100 149q62 63 145 101q81 37 175 37q73 0 136 -23q61 -22 106 -66q45 -43 70 -104q25 -60 25 -133t-26 -154q-27 -78 -74 -144q-47 -65 -107 -104q-33 -20 -62 -30q-36 -12 -72 -16q-45 -5 -109 -5q-90 0 -132 9q-41 7 -78 31q-64 46 -98 118 q-36 72 -36 156zM269 329q0 -113 125 -113q66 0 98 25q38 29 65 88q26 60 26 114q0 53 -32 88q-33 34 -84 34q-49 0 -96 -33q-45 -34 -74 -88q-28 -53 -28 -115zM230 1024q0 56 40 95q40 38 95 38q58 0 97 -39t39 -96q0 -54 -39 -95q-41 -41 -97 -41t-95 41q-40 40 -40 97z M612 1024q0 56 41 95q41 38 95 38q57 0 96 -39t39 -96q0 -54 -39 -95q-41 -41 -96 -41q-58 0 -97 40q-39 41 -39 98z" />
<glyph unicode="&#xf7;" d="M68 0v1365h683v-1365h-683zM82 14h655v1337h-655v-1337z" />
<glyph unicode="&#xf8;" horiz-adv-x="848" d="M-11 58q0 29 15 56q16 28 51 61q-24 77 -24 139q0 91 37 175q38 86 102 150t149 102q81 37 175 37q76 0 148 -31q56 50 101 50q36 0 68 -31q32 -32 32 -66q0 -40 -51 -99q34 -72 34 -152q0 -71 -21 -139q-21 -67 -59 -129q-39 -60 -94 -106q-51 -42 -116 -58 q-70 -17 -179 -17q-102 0 -156 20q-59 -59 -112 -59q-39 0 -69 30q-31 28 -31 67zM272 329q0 -113 126 -113q65 0 97 25q41 32 66 89t25 113q0 53 -32 88q-33 34 -84 34q-75 0 -137 -72q-61 -73 -61 -164z" />
<glyph unicode="&#xf9;" horiz-adv-x="1048" d="M40 192q0 51 26 114l136 334q30 73 67 107q34 31 90 31q44 0 72 -27q29 -27 29 -67q0 -31 -15 -69l-11 -27l-105 -257l-11 -30q-11 -30 -11 -40q0 -18 16 -31t41 -13q52 0 73 8q65 25 91 86l127 314q32 76 67 107q37 32 92 32q44 0 72 -27q29 -27 29 -67q0 -33 -26 -97 l-144 -355h116h24q102 -1 102 -89q0 -53 -42 -91q-44 -38 -102 -38h-24h-193q-30 0 -57 18q-27 17 -41 47q-56 -65 -136 -65h-162q-20 0 -53 11q-35 11 -55 23q-35 23 -58 68q-24 45 -24 90zM388 1096q0 33 22 52q23 20 53 20h74q42 0 61 -12q21 -15 34 -46l41 -95 q12 -28 12 -54q0 -24 -18 -41q-19 -18 -43 -18q-29 0 -63 25l-119 88q-32 23 -43 40t-11 41z" />
<glyph unicode="&#xfa;" horiz-adv-x="1048" d="M40 192q0 51 26 114l136 334q30 73 67 107q34 31 90 31q44 0 72 -27q29 -27 29 -67q0 -31 -15 -69l-11 -27l-105 -257l-11 -30q-11 -30 -11 -40q0 -18 16 -31t41 -13q52 0 73 8q65 25 91 86l127 314q32 76 67 107q37 32 92 32q44 0 72 -27q29 -27 29 -67q0 -33 -26 -97 l-144 -355h116h24q102 -1 102 -89q0 -53 -42 -91q-44 -38 -102 -38h-24h-193q-30 0 -57 18q-27 17 -41 47q-56 -65 -136 -65h-162q-20 0 -53 11q-35 11 -55 23q-35 23 -58 68q-24 45 -24 90zM598 957q0 11 3 18l9 20l38 103q13 36 34 50q20 14 56 14h59q52 0 74 -16t22 -56 q0 -37 -32 -63l-125 -99q-43 -34 -74 -34q-24 0 -44 20t-20 43z" />
<glyph unicode="&#xfb;" horiz-adv-x="1048" d="M40 192q0 51 26 114l136 334q30 73 67 107q34 31 90 31q44 0 72 -27q29 -27 29 -67q0 -31 -15 -69l-11 -27l-105 -257l-11 -30q-11 -30 -11 -40q0 -18 16 -31t41 -13q52 0 73 8q65 25 91 86l127 314q32 76 67 107q37 32 92 32q44 0 72 -27q29 -27 29 -67q0 -33 -26 -97 l-144 -355h116h24q102 -1 102 -89q0 -53 -42 -91q-44 -38 -102 -38h-24h-193q-30 0 -57 18q-27 17 -41 47q-56 -65 -136 -65h-162q-20 0 -53 11q-35 11 -55 23q-35 23 -58 68q-24 45 -24 90zM402 976q0 32 20 58q19 25 65 48l117 62q61 32 99 32q25 0 53 -24q4 -2 8 -5t5 -5 l7 -7l81 -67q51 -40 51 -91q0 -35 -24 -58q-25 -24 -62 -24q-15 0 -18 1q-6 2 -14 6q-12 6 -18 11q-2 2 -10 8.5t-19 15.5l-59 53l-119 -66q-52 -30 -86 -30q-30 0 -53 26q-24 26 -24 56z" />
<glyph unicode="&#xfc;" horiz-adv-x="1048" d="M40 192q0 51 26 114l136 334q30 73 67 107q34 31 90 31q44 0 72 -27q29 -27 29 -67q0 -31 -15 -69l-11 -27l-105 -257l-11 -30q-11 -30 -11 -40q0 -18 16 -31t41 -13q52 0 73 8q65 25 91 86l127 314q32 76 67 107q37 32 92 32q44 0 72 -27q29 -27 29 -67q0 -33 -26 -97 l-144 -355h116h24q102 -1 102 -89q0 -53 -42 -91q-44 -38 -102 -38h-24h-193q-30 0 -57 18q-27 17 -41 47q-56 -65 -136 -65h-162q-20 0 -53 11q-35 11 -55 23q-35 23 -58 68q-24 45 -24 90zM334 1021q0 56 40 95q40 38 95 38q58 0 97 -39t39 -96q0 -54 -39 -95 q-41 -41 -97 -41t-95 41q-40 40 -40 97zM716 1021q0 56 41 95q41 38 95 38q57 0 96 -39t39 -96q0 -54 -39 -95q-41 -41 -96 -41q-58 0 -97 40q-39 41 -39 98z" />
<glyph unicode="&#xff;" horiz-adv-x="933" d="M-287 -404q0 72 30 137q29 65 83 115q52 47 122 74q98 37 284 37h162l30 72q-75 -36 -138 -36q-104 0 -172 56q-67 55 -67 143q0 56 43 161l109 269q32 78 68 108q37 32 92 32q44 0 74 -27q29 -27 29 -67q0 -32 -26 -99l-97 -239q-25 -57 -25 -78t18 -33q17 -12 46 -12 q43 0 91 27q49 26 62 60l134 328l11 27q23 55 61 84t87 29q45 0 73 -27q29 -27 29 -69q0 -34 -15 -69l-11 -27l-248 -613h115h25q47 0 75 -23q27 -24 27 -66q0 -54 -42 -91q-44 -38 -103 -38h-24h-162q-15 -46 -38 -94q-48 -107 -85 -169q-37 -61 -70 -93 q-124 -123 -297 -123q-101 0 -183 45q-84 44 -130 120q-47 77 -47 169zM-45 -405q0 -49 33 -80q32 -32 81 -32q95 0 169 104q37 51 86 154h-140q-114 0 -171 -36q-58 -37 -58 -110zM345 1032q0 56 40 95q40 38 95 38q58 0 97 -39t39 -96q0 -54 -39 -95q-41 -41 -97 -41 t-95 41q-40 40 -40 97zM727 1032q0 56 41 95q41 38 95 38q57 0 96 -39t39 -96q0 -54 -39 -95q-41 -41 -96 -41q-58 0 -97 40q-39 41 -39 98z" />
<glyph unicode="&#x131;" horiz-adv-x="557" d="M27 136q0 30 21 82l165 406l11 27q48 113 148 113q45 0 73 -27q29 -27 29 -69q0 -32 -14 -69l-12 -27l-143 -354h113h24q102 -1 102 -89q0 -53 -42 -91q-44 -38 -102 -38h-24h-160q-89 0 -139 36t-50 100z" />
<glyph unicode="&#x152;" d="M68 0v1365h683v-1365h-683zM82 14h655v1337h-655v-1337z" />
<glyph unicode="&#x153;" horiz-adv-x="1315" d="M27 313q0 123 63 229q62 108 168 172q106 65 223 65q86 0 143 -25q59 -25 96 -78q40 51 100 77q59 24 145 24q87 0 154 -30q68 -31 102 -87q35 -56 35 -133q0 -68 -35 -126q-34 -56 -97 -84q-38 -15 -65 -19q-33 -5 -94 -5h-187q5 -41 28 -57q23 -18 73 -18h296h25 q47 0 75 -23q27 -22 27 -66q0 -57 -52 -100q-35 -29 -116 -29h-284q-80 0 -133 18q-52 16 -98 56q-26 -31 -50 -45q-26 -14 -70 -23q-35 -7 -169 -7q-71 0 -115 14q-42 13 -86 51q-102 95 -102 249zM268 329q0 -113 126 -113q65 0 97 25q39 30 66 89q26 60 26 113 q0 54 -33 88q-34 34 -84 34q-75 0 -137 -72q-61 -73 -61 -164zM824 474h99q52 0 79 11q24 11 24 35q0 22 -18 38q-19 15 -45 15q-46 0 -84 -27q-38 -28 -55 -72z" />
<glyph unicode="&#x178;" d="M68 0v1365h683v-1365h-683zM82 14h655v1337h-655v-1337z" />
<glyph unicode="&#x2c6;" horiz-adv-x="780" d="M137 976q0 32 20 58q19 25 65 48l117 62q61 32 99 32q25 0 53 -24q4 -2 8 -5t5 -5l7 -7l81 -67q51 -40 51 -91q0 -35 -24 -58q-25 -24 -62 -24q-15 0 -18 1q-6 2 -14 6q-12 6 -18 11q-2 2 -10 8.5t-19 15.5l-59 53l-119 -66q-52 -30 -86 -30q-30 0 -53 26q-24 26 -24 56z " />
<glyph unicode="&#x2da;" horiz-adv-x="635" d="M137 1043q0 49 25 90q24 41 66 65t90 24q49 0 91 -24q42 -25 66 -66q24 -42 24 -91t-24 -90q-25 -42 -66 -66q-41 -25 -91 -25q-51 0 -91 25q-42 24 -66 67q-24 42 -24 91zM251 1042q0 -28 20 -48t47 -20q28 0 47 19q20 20 20 48t-19 47t-48 19q-28 0 -47 -19 q-20 -20 -20 -46z" />
<glyph unicode="&#x2dc;" horiz-adv-x="788" d="M137 981q0 32 33 75l39 50q47 57 111 57q36 0 85 -34l32 -21q14 -9 23 -9q13 0 25 13l24 24q21 21 50 21q38 0 66 -23q26 -24 26 -58q0 -38 -29 -72l-57 -65q-39 -45 -93 -45q-48 0 -99 42q-28 24 -38 24q-14 0 -33 -19q-40 -40 -86 -40q-33 0 -56 23t-23 57z" />
<glyph unicode="&#x2000;" horiz-adv-x="888" />
<glyph unicode="&#x2001;" horiz-adv-x="1777" />
<glyph unicode="&#x2002;" horiz-adv-x="888" />
<glyph unicode="&#x2003;" horiz-adv-x="1777" />
<glyph unicode="&#x2004;" horiz-adv-x="592" />
<glyph unicode="&#x2005;" horiz-adv-x="444" />
<glyph unicode="&#x2006;" horiz-adv-x="296" />
<glyph unicode="&#x2007;" horiz-adv-x="296" />
<glyph unicode="&#x2008;" horiz-adv-x="222" />
<glyph unicode="&#x2009;" horiz-adv-x="355" />
<glyph unicode="&#x200a;" horiz-adv-x="98" />
<glyph unicode="&#x2010;" horiz-adv-x="887" d="M137 427q0 37 27 61q26 24 67 24h19h387h19q44 0 69 -22q26 -23 26 -63q0 -39 -26 -62q-27 -24 -69 -24h-19h-387h-19q-41 1 -68 25q-26 23 -26 61z" />
<glyph unicode="&#x2011;" horiz-adv-x="887" d="M137 427q0 37 27 61q26 24 67 24h19h387h19q44 0 69 -22q26 -23 26 -63q0 -39 -26 -62q-27 -24 -69 -24h-19h-387h-19q-41 1 -68 25q-26 23 -26 61z" />
<glyph unicode="&#x2012;" horiz-adv-x="887" d="M137 427q0 37 27 61q26 24 67 24h19h387h19q44 0 69 -22q26 -23 26 -63q0 -39 -26 -62q-27 -24 -69 -24h-19h-387h-19q-41 1 -68 25q-26 23 -26 61z" />
<glyph unicode="&#x2013;" horiz-adv-x="1251" d="M137 427q0 37 27 61q26 24 67 24h19h751h19q44 0 69 -22q26 -23 26 -63q0 -39 -26 -62q-27 -24 -69 -24h-19h-751h-19q-41 1 -68 25q-26 23 -26 61z" />
<glyph unicode="&#x2014;" horiz-adv-x="2321" d="M137 427q0 37 27 61q26 24 67 24h19h1820h19q44 0 69 -22q26 -23 26 -63q0 -39 -26 -62q-27 -24 -69 -24h-19h-1820h-19q-41 1 -68 25q-26 23 -26 61z" />
<glyph unicode="&#x2018;" horiz-adv-x="546" d="M382 1136q0 33 12 60q11 28 36 56q25 30 70 66q47 39 78 57q32 18 55 18q18 0 34 -13q15 -13 15 -28q0 -18 -24 -53l-18 -26l-40 -55q31 -49 31 -89q0 -49 -37 -83q-38 -35 -88 -35q-51 0 -87 36q-37 34 -37 89z" />
<glyph unicode="&#x2019;" horiz-adv-x="546" d="M382 1052q0 18 23 52l19 26l40 55q-31 49 -31 89q0 50 37 84t88 34q54 0 89 -35t35 -90q0 -46 -27 -88q-28 -42 -91 -94q-51 -42 -81 -58q-28 -16 -52 -16q-20 0 -34 13q-15 12 -15 28z" />
<glyph unicode="&#x201a;" d="M68 0v1365h683v-1365h-683zM82 14h655v1337h-655v-1337z" />
<glyph unicode="&#x201c;" horiz-adv-x="872" d="M382 1136q0 33 12 60q11 28 36 56q25 30 70 66q47 39 78 57q32 18 55 18q18 0 34 -13q15 -13 15 -28q0 -18 -24 -53l-18 -26l-40 -55q31 -49 31 -89q0 -49 -37 -83q-38 -35 -88 -35q-51 0 -87 36q-37 34 -37 89zM709 1136q0 46 26 87q27 42 91 95q50 41 80 58 q31 17 53 17q20 0 34 -13q15 -13 15 -28q0 -18 -23 -53l-19 -26l-39 -55q30 -49 30 -89q0 -49 -37 -83q-38 -35 -88 -35q-52 0 -87 36q-36 35 -36 89z" />
<glyph unicode="&#x201d;" horiz-adv-x="872" d="M382 1052q0 18 23 52l19 26l40 55q-31 49 -31 89q0 50 37 84t88 34q54 0 89 -35t35 -90q0 -46 -27 -88q-28 -42 -91 -94q-51 -42 -81 -58q-28 -16 -52 -16q-20 0 -34 13q-15 12 -15 28zM709 1052q0 20 23 52l18 26l40 55q-31 49 -31 89q0 50 37 84t89 34q54 0 89 -35 q34 -35 34 -90q0 -46 -27 -87q-28 -43 -90 -95q-48 -40 -80 -57t-53 -17q-20 0 -34 13q-15 12 -15 28z" />
<glyph unicode="&#x201e;" horiz-adv-x="872" d="M68 -108q0 17 23 52l19 26l40 55q-31 49 -31 89q0 50 37 84t88 34q54 0 89 -35t35 -90q0 -46 -27 -88q-28 -42 -91 -94q-51 -42 -81 -58q-28 -16 -51 -16q-19 0 -34 12q-16 12 -16 29zM395 -108q0 20 23 52l18 26l40 55q-31 49 -31 89q0 50 37 84t89 34q54 0 89 -35 q34 -35 34 -90q0 -46 -27 -87q-28 -43 -90 -95q-48 -40 -80 -57t-53 -17q-20 0 -34 13q-15 12 -15 28z" />
<glyph unicode="&#x2022;" horiz-adv-x="877" d="M205 682q0 80 41 151t110 111q70 40 151 40t151 -40q70 -41 110 -111q41 -71 41 -151t-41 -151q-39 -69 -110 -110t-151 -41q-57 0 -114 23q-55 23 -99 66q-43 44 -66 99q-23 57 -23 114z" />
<glyph unicode="&#x2026;" horiz-adv-x="2048" d="M168 112q0 38 19 70q20 32 51 51q32 18 67 18q40 0 71 -19q32 -19 51 -51q19 -31 19 -71q0 -58 -40 -97q-40 -40 -99 -40q-38 0 -69 19q-33 18 -51 51q-19 31 -19 69zM850 112q0 38 19 70q20 32 51 51q32 18 67 18q40 0 72 -19t51 -51q19 -31 19 -71q0 -56 -40 -96 q-41 -41 -100 -41q-38 0 -69 19q-33 18 -51 51q-19 31 -19 69zM1533 112q0 38 19 70q20 32 51 51q32 18 67 18q40 0 71 -19q32 -19 51 -51q19 -31 19 -71q0 -58 -40 -97q-40 -40 -99 -40q-38 0 -69 19q-33 18 -51 51q-19 31 -19 69z" />
<glyph unicode="&#x202f;" horiz-adv-x="355" />
<glyph unicode="&#x2039;" horiz-adv-x="593" d="M136 436q0 38 43 97l84 117q35 47 58 64t53 17q37 0 61 -26q24 -25 24 -65q0 -38 -31 -81l-14 -21l-78 -111l54 -143q16 -41 16 -64q0 -40 -32 -74q-33 -34 -73 -34q-50 0 -71 57l-7 19l-55 143l-19 48q-13 33 -13 57z" />
<glyph unicode="&#x203a;" horiz-adv-x="593" d="M134 202q0 38 31 81l14 21l78 111l-54 143q-15 44 -15 64q0 40 32 75q32 33 72 33q51 0 72 -57l7 -19l54 -143l19 -48q13 -33 13 -57q0 -38 -42 -97l-85 -117q-34 -46 -57 -63q-25 -17 -54 -17q-34 0 -60 26q-25 25 -25 64z" />
<glyph unicode="&#x205f;" horiz-adv-x="444" />
<glyph unicode="&#x2122;" d="M68 0v1365h683v-1365h-683zM82 14h655v1337h-655v-1337z" />
<glyph unicode="&#xe000;" horiz-adv-x="780" d="M0 780h780v-780h-780v780z" />
<glyph unicode="&#xf000;" d="M68 0v1365h683v-1365h-683zM82 14h655v1337h-655v-1337z" />
<glyph unicode="&#xfb01;" horiz-adv-x="1315" d="M785 136q0 30 21 82l165 406l11 27q48 113 148 113q45 0 73 -27q29 -27 29 -69q0 -32 -14 -69l-12 -27l-143 -354h113h24q102 -1 102 -89q0 -53 -42 -91q-44 -38 -102 -38h-24h-160q-89 0 -139 36t-50 100zM1057 946q0 57 41 98t97 41q40 0 71 -19q32 -19 51 -51 q19 -31 19 -71q0 -56 -40 -96q-41 -41 -100 -41q-38 0 -69 19q-33 18 -51 51q-19 31 -19 69zM-218 -605q0 21 4 36q5 19 22 61l427 1054h-67h-25q-102 2 -102 89q0 55 43 92q41 37 102 37h24h114l127 314q61 152 153 220q89 67 240 67h114h25q103 -1 103 -90q0 -56 -43 -93 q-44 -38 -103 -38h-25h-29q-85 0 -132 -34q-48 -34 -82 -115l-94 -231h138h24q103 -1 103 -89q0 -54 -43 -91q-44 -38 -102 -38h-24h-184l-449 -1106l-11 -27q-48 -112 -147 -112q-43 0 -71 28q-30 27 -30 66z" />
<glyph unicode="&#xfb02;" horiz-adv-x="1318" d="M785 123q0 43 30 110l404 993l10 27q48 112 147 112q44 0 72 -27q29 -27 29 -67q0 -31 -15 -69l-11 -27l-388 -957h105h24q102 -1 102 -89q0 -53 -42 -91q-44 -38 -102 -38h-25h-180q-73 0 -116 34q-44 33 -44 89zM-218 -605q0 21 4 36q5 19 22 61l427 1054h-67h-25 q-102 2 -102 89q0 55 43 92q41 37 102 37h24h114l127 314q61 152 153 220q89 67 240 67h114h25q103 -1 103 -90q0 -56 -43 -93q-44 -38 -103 -38h-25h-29q-85 0 -132 -34q-48 -34 -82 -115l-94 -231h138h24q103 -1 103 -89q0 -54 -43 -91q-44 -38 -102 -38h-24h-184 l-449 -1106l-11 -27q-48 -112 -147 -112q-43 0 -71 28q-30 27 -30 66z" />
<glyph unicode="&#xfb03;" horiz-adv-x="2073" d="M1543 136q0 30 21 82l165 406l11 27q48 113 148 113q45 0 73 -27q29 -27 29 -69q0 -32 -14 -69l-12 -27l-143 -354h113h24q102 -1 102 -89q0 -53 -42 -91q-44 -38 -102 -38h-24h-160q-89 0 -139 36t-50 100zM1815 946q0 57 41 98t97 41q40 0 71 -19q32 -19 51 -51 q19 -31 19 -71q0 -56 -40 -96q-41 -41 -100 -41q-38 0 -69 19q-33 18 -51 51q-19 31 -19 69zM540 -605q0 21 4 36q5 19 22 61l427 1054h-67h-25q-102 2 -102 89q0 55 43 92q41 37 102 37h24h114l127 314q61 152 153 220q89 67 240 67h114h25q103 -1 103 -90q0 -56 -43 -93 q-44 -38 -103 -38h-25h-29q-85 0 -132 -34q-48 -34 -82 -115l-94 -231h138h24q103 -1 103 -89q0 -54 -43 -91q-44 -38 -102 -38h-24h-184l-449 -1106l-11 -27q-48 -112 -147 -112q-43 0 -71 28q-30 27 -30 66zM-218 -605q0 21 4 36q5 19 22 61l427 1054h-67h-25 q-102 2 -102 89q0 55 43 92q41 37 102 37h24h114l127 314q61 152 153 220q89 67 240 67h114h25q103 -1 103 -90q0 -56 -43 -93q-44 -38 -103 -38h-25h-29q-85 0 -132 -34q-48 -34 -82 -115l-94 -231h138h24q103 -1 103 -89q0 -54 -43 -91q-44 -38 -102 -38h-24h-184 l-449 -1106l-11 -27q-48 -112 -147 -112q-43 0 -71 28q-30 27 -30 66z" />
<glyph unicode="&#xfb04;" horiz-adv-x="2076" d="M1543 123q0 43 30 110l404 993l10 27q48 112 147 112q44 0 72 -27q29 -27 29 -67q0 -31 -15 -69l-11 -27l-388 -957h105h24q102 -1 102 -89q0 -53 -42 -91q-44 -38 -102 -38h-25h-180q-73 0 -116 34q-44 33 -44 89zM540 -605q0 21 4 36q5 19 22 61l427 1054h-67h-25 q-102 2 -102 89q0 55 43 92q41 37 102 37h24h114l127 314q61 152 153 220q89 67 240 67h114h25q103 -1 103 -90q0 -56 -43 -93q-44 -38 -103 -38h-25h-29q-85 0 -132 -34q-48 -34 -82 -115l-94 -231h138h24q103 -1 103 -89q0 -54 -43 -91q-44 -38 -102 -38h-24h-184 l-449 -1106l-11 -27q-48 -112 -147 -112q-43 0 -71 28q-30 27 -30 66zM-218 -605q0 21 4 36q5 19 22 61l427 1054h-67h-25q-102 2 -102 89q0 55 43 92q41 37 102 37h24h114l127 314q61 152 153 220q89 67 240 67h114h25q103 -1 103 -90q0 -56 -43 -93q-44 -38 -103 -38h-25 h-29q-85 0 -132 -34q-48 -34 -82 -115l-94 -231h138h24q103 -1 103 -89q0 -54 -43 -91q-44 -38 -102 -38h-24h-184l-449 -1106l-11 -27q-48 -112 -147 -112q-43 0 -71 28q-30 27 -30 66z" />
</font>
</defs>
</svg>
